<?xml version="1.0" standalone="no"?>
<!DOCTYPE svg PUBLIC "-//W3C//DTD SVG 20010904//EN"
 "http://www.w3.org/TR/2001/REC-SVG-20010904/DTD/svg10.dtd">
<svg version="1.0" xmlns="http://www.w3.org/2000/svg"
 width="600.000000pt" height="600.000000pt" viewBox="0 0 600.000000 600.000000"
 preserveAspectRatio="xMidYMid meet">
<metadata>
Created by potrace 1.14, written by Peter Selinger 2001-2017
</metadata>
<g transform="translate(0.000000,600.000000) scale(0.100000,-0.100000)"
fill="#000000" stroke="none">
<path d="M1626 5915 c-3 -10 -11 -13 -18 -9 -7 4 -10 4 -6 -1 4 -4 3 -15 -4
-22 -9 -11 -9 -17 3 -25 10 -7 7 -8 -13 -5 -24 3 -26 2 -18 -14 8 -15 7 -17
-10 -14 -23 4 -36 -10 -19 -21 8 -5 9 -3 4 6 -6 9 -4 11 4 6 15 -10 6 -21 -17
-21 -10 0 -17 -8 -17 -20 0 -11 -3 -18 -6 -15 -3 3 -13 -1 -22 -8 -12 -10 -17
-10 -23 -1 -5 8 -3 9 6 4 9 -6 11 -4 5 4 -6 10 -11 9 -23 -3 -16 -16 -25 -59
-10 -50 4 3 8 0 8 -5 0 -6 5 -11 10 -11 24 0 50 -41 50 -79 0 -31 4 -40 22
-44 19 -5 20 -8 7 -24 -12 -16 -12 -17 2 -6 9 7 20 9 25 5 4 -4 3 0 -4 9 -10
14 -8 16 16 18 15 1 38 3 52 4 16 1 24 -3 22 -11 -1 -8 2 -11 8 -7 5 3 10 14
11 23 1 11 4 8 9 -8 5 -17 8 -19 9 -7 1 9 6 17 12 17 5 0 7 -5 3 -11 -7 -13
15 -31 29 -22 4 2 3 11 -3 18 -8 9 -4 11 17 9 16 -2 22 -1 16 2 -18 8 -16 22
5 27 16 4 16 5 0 6 -10 0 -18 4 -18 7 0 4 8 13 18 21 9 8 12 12 5 9 -6 -4 -14
-2 -18 4 -5 9 14 15 37 11 4 0 4 7 1 16 -5 12 -3 14 8 8 11 -7 11 -5 -1 10
-12 15 -12 17 -1 10 11 -6 13 -2 9 18 -3 15 -1 24 3 21 5 -3 6 3 2 12 -6 16
-7 16 -18 0 -18 -24 -24 -20 -19 12 5 24 4 25 -8 10 -10 -13 -17 -15 -28 -7
-12 9 -11 10 5 5 15 -5 13 -1 -9 19 -16 14 -32 25 -36 25 -15 0 -21 34 -8 43
9 6 6 7 -9 4 -15 -3 -20 -1 -16 9 3 8 -1 14 -8 14 -10 0 -10 3 -1 12 7 7 12
17 12 23 0 5 -5 3 -10 -5 -8 -12 -12 -13 -19 -2 -7 11 -9 10 -15 -3z m14 -8
c0 -2 -10 -12 -22 -23 l-23 -19 19 23 c18 21 26 27 26 19z m-183 -163 c-3 -4
-2 -16 4 -28 10 -20 9 -20 -5 -2 -14 17 -13 36 1 36 4 0 3 -3 0 -6z"/>
<path d="M3018 5860 c18 -20 15 -26 -12 -26 -14 0 -23 3 -20 7 2 4 -3 9 -11
12 -10 4 -12 1 -8 -11 6 -15 5 -16 -12 -2 -11 9 -16 10 -11 3 4 -7 2 -13 -3
-13 -6 0 -11 6 -11 13 0 8 -4 7 -10 -3 -9 -13 -10 -13 -10 0 0 13 -1 13 -10 0
-8 -12 -10 -12 -10 -1 0 9 -4 10 -12 4 -18 -14 -60 -14 -52 -1 4 7 2 8 -4 4
-7 -4 -12 -14 -12 -22 0 -8 -5 -12 -11 -9 -5 4 -21 -5 -34 -19 -13 -14 -27
-26 -32 -26 -4 0 -2 5 5 12 7 7 12 16 12 21 0 6 -13 -8 -29 -29 -15 -21 -27
-41 -25 -43 3 -3 10 3 17 13 12 16 13 16 13 -3 0 -11 -5 -17 -10 -14 -5 4 -7
-1 -2 -12 5 -14 4 -16 -7 -7 -11 9 -13 7 -12 -11 2 -12 8 -21 14 -19 7 1 10
-2 6 -8 -3 -6 -11 -8 -16 -5 -16 10 -10 -5 11 -27 16 -17 17 -24 7 -37 -8 -9
-8 -12 -1 -8 7 4 14 0 17 -8 4 -10 1 -12 -11 -8 -13 4 -12 2 3 -10 11 -8 24
-13 29 -10 5 4 6 1 2 -6 -4 -6 -11 -9 -16 -6 -5 3 -12 1 -15 -5 -4 -6 -3 -10
2 -9 24 4 35 -2 29 -17 -4 -10 1 -25 10 -35 10 -11 13 -19 8 -19 -5 0 -2 -5 6
-11 13 -9 12 -10 -3 -5 -10 3 -16 2 -12 -3 3 -5 2 -11 -2 -14 -5 -2 -2 -2 5 0
9 2 11 -3 7 -17 -5 -15 -2 -20 12 -21 16 0 16 -1 -2 -9 -11 -5 -14 -9 -6 -9
10 -1 11 -4 2 -15 -9 -11 -9 -16 0 -22 8 -4 9 -3 5 4 -5 8 -1 10 10 5 11 -4
13 -8 6 -11 -7 -2 -12 -12 -12 -23 0 -10 -6 -19 -12 -19 -7 -1 -2 -7 12 -15
14 -8 19 -14 13 -15 -7 0 -13 -5 -13 -11 0 -5 5 -7 10 -4 6 3 10 2 10 -4 0 -5
-4 -11 -10 -13 -6 -2 -4 -14 5 -31 8 -15 10 -25 5 -22 -6 4 -10 1 -10 -5 0 -6
-5 -8 -12 -4 -10 6 -10 5 -1 -8 7 -8 9 -19 5 -23 -4 -5 -1 -5 6 -1 7 4 9 13 6
19 -4 7 -3 8 2 4 4 -4 9 -22 9 -40 0 -18 4 -38 9 -46 6 -10 5 -12 -2 -7 -8 5
-12 -1 -12 -14 0 -13 -4 -19 -12 -14 -7 4 -8 3 -4 -5 4 -6 11 -9 16 -6 5 3 11
1 15 -5 3 -6 -3 -10 -15 -10 -19 0 -20 -1 -6 -16 20 -19 20 -28 2 -21 -10 4
-13 1 -9 -8 3 -8 9 -13 13 -10 5 3 12 0 16 -6 4 -8 3 -9 -5 -5 -8 6 -11 -2 -8
-28 3 -22 -1 -40 -9 -47 -15 -12 -9 -33 7 -23 5 3 6 10 3 16 -4 7 -2 8 5 4 7
-5 9 -12 3 -19 -5 -7 -8 -31 -7 -55 1 -23 -1 -45 -6 -47 -4 -3 -6 -15 -3 -28
12 -60 13 -87 2 -81 -6 4 -8 3 -4 -4 3 -5 0 -13 -6 -15 -10 -4 -10 -6 0 -6 6
-1 12 -11 12 -24 0 -13 -6 -29 -12 -36 -11 -12 -9 -13 7 -7 19 6 19 5 3 -8
-19 -14 -25 -32 -8 -21 6 3 10 1 10 -4 0 -6 -4 -11 -9 -11 -5 0 -12 -7 -15
-16 -3 -8 -2 -12 3 -9 5 3 12 1 16 -5 6 -9 -8 -14 -28 -11 -5 1 -6 -3 -2 -9 3
-6 10 -8 14 -6 4 3 8 -1 8 -9 0 -8 -4 -12 -8 -9 -4 2 -10 0 -14 -6 -3 -5 1
-10 9 -10 9 0 16 -5 16 -11 0 -5 -4 -7 -10 -4 -5 3 -10 1 -10 -5 0 -6 -6 -8
-12 -4 -7 4 -4 -3 7 -16 11 -13 14 -20 8 -16 -12 7 -18 -6 -14 -28 1 -5 -6 -3
-16 5 -17 13 -17 13 0 -13 14 -23 15 -26 2 -21 -10 3 -15 0 -13 -8 2 -8 -2
-13 -8 -12 -7 1 -10 -6 -7 -17 3 -11 10 -17 16 -13 6 3 7 1 3 -6 -4 -6 -11 -9
-16 -6 -5 3 -11 1 -15 -5 -3 -5 0 -10 7 -10 8 0 9 -3 3 -8 -19 -13 -17 -35 2
-28 16 5 15 4 -1 -9 -11 -8 -14 -15 -8 -15 7 0 17 -11 24 -25 6 -13 16 -21 22
-18 6 4 4 -1 -4 -12 -14 -16 -13 -17 7 -11 12 4 24 2 28 -4 3 -6 11 -8 16 -4
6 3 20 -2 31 -13 12 -10 18 -13 15 -6 -9 14 41 7 60 -9 17 -13 17 4 1 22 -11
12 -10 12 3 2 9 -6 20 -8 24 -4 5 4 5 1 0 -7 -6 -10 -4 -12 4 -7 6 4 19 2 28
-6 14 -11 16 -11 11 4 -5 11 -2 15 10 13 9 -1 23 3 31 9 11 8 13 8 7 -1 -5 -9
-1 -13 13 -13 11 0 23 4 26 10 8 13 45 -11 38 -25 -2 -5 5 1 17 15 12 14 19
19 15 13 -3 -7 -2 -13 2 -13 5 0 15 6 22 13 11 10 12 9 6 -3 -7 -12 -6 -13 7
-3 8 7 19 9 23 5 5 -4 4 -1 0 7 -6 11 -4 13 9 8 10 -4 15 -3 11 3 -3 6 -2 10
4 10 5 0 12 -6 15 -12 3 -7 3 -2 0 11 -5 19 -3 23 9 18 12 -4 14 0 11 19 -3
15 -1 23 5 20 5 -4 13 -1 17 5 4 8 3 9 -4 5 -20 -12 -18 43 1 57 8 6 6 7 -5 3
-18 -5 -34 25 -29 57 1 9 -3 17 -8 17 -6 0 -10 6 -8 13 1 6 -4 11 -12 9 -12
-3 -12 0 -1 12 7 9 8 16 3 16 -8 0 -13 31 -16 88 0 7 -7 10 -16 7 -12 -4 -12
-2 2 9 15 11 15 15 3 19 -9 4 -13 15 -11 29 3 12 -1 26 -8 30 -8 5 -7 8 5 8 9
0 20 5 24 12 4 7 3 8 -4 4 -16 -10 -15 16 1 34 10 12 9 12 -4 2 -14 -10 -18
-10 -23 4 -8 21 -8 24 5 24 5 0 7 -5 3 -12 -5 -7 -3 -8 5 -4 9 6 8 13 -6 29
-10 11 -12 17 -5 13 6 -4 12 -2 12 3 0 6 -6 11 -12 11 -9 0 -8 4 2 10 13 9 13
10 0 11 -10 0 -8 3 5 9 15 6 16 9 4 9 -11 1 -16 11 -15 35 1 19 4 32 8 29 5
-2 8 1 8 6 0 6 -6 11 -12 11 -9 0 -8 4 2 10 13 8 13 10 1 10 -11 0 -9 4 5 15
13 10 14 13 3 10 -13 -5 -16 1 -15 29 1 19 4 32 8 29 5 -2 8 1 8 6 0 6 -6 11
-12 11 -9 0 -8 4 2 10 10 6 11 10 3 10 -7 0 -13 5 -13 11 0 5 4 8 9 4 5 -3 13
-1 16 5 4 6 1 9 -6 8 -7 -2 -12 10 -14 29 -1 18 2 30 7 27 4 -3 8 0 8 5 0 6
-6 11 -12 11 -9 0 -8 4 2 10 13 8 13 10 1 10 -11 0 -10 4 4 13 14 11 15 16 5
22 -9 5 -11 4 -6 -3 4 -7 3 -12 -2 -12 -5 0 -9 13 -8 29 0 16 4 27 9 24 4 -2
4 -9 1 -15 -4 -7 -2 -8 4 -4 6 4 8 14 5 23 -5 12 -3 14 8 8 12 -7 12 -6 1 7
-7 9 -11 28 -8 42 3 15 1 24 -4 21 -5 -3 -12 0 -16 6 -4 7 -3 9 3 6 6 -4 14 3
18 16 10 33 13 87 3 81 -4 -3 -8 0 -8 5 0 6 8 11 18 11 16 1 16 1 -1 11 -9 6
-15 15 -11 21 4 7 9 7 13 -1 4 -6 7 5 7 24 0 19 -4 31 -10 28 -5 -3 -6 -2 -3
4 3 5 8 23 11 39 3 16 9 30 14 32 4 1 7 15 6 31 -1 23 2 28 13 24 13 -5 14 -3
3 18 l-13 24 24 -20 c13 -11 19 -14 13 -7 -13 15 -6 62 8 62 6 0 7 7 4 16 -3
8 -2 12 4 9 5 -3 7 0 4 8 -3 8 -1 18 5 22 7 4 8 12 1 24 -5 10 -6 22 -2 26 4
3 2 6 -3 5 -6 -1 -17 -2 -25 0 -11 1 -9 4 5 10 17 7 17 9 3 9 -16 1 -23 12
-19 34 0 4 -8 7 -20 7 -12 0 -23 8 -26 20 -4 13 -14 20 -30 20 -17 0 -22 4
-17 13 5 7 0 6 -11 -3 -11 -9 -16 -10 -11 -2 4 6 3 12 -3 12 -5 0 -12 -6 -14
-12 -4 -10 -6 -10 -6 0 -1 6 -6 12 -12 12 -5 0 -8 -4 -5 -8 2 -4 -4 -9 -15 -9
-10 -1 -19 3 -19 8 0 6 5 7 12 3 7 -4 8 -3 4 5 -5 8 -12 9 -20 2 -9 -7 -20 -6
-37 6 -13 9 -19 10 -11 3z m275 -164 c3 -8 -2 -20 -11 -28 -15 -11 -15 -11 -5
3 10 12 10 18 1 27 -8 8 -9 12 -1 12 6 0 13 -6 16 -14z m-96 -429 c0 -8 -6
-14 -14 -14 -9 0 -10 4 -2 14 6 7 12 13 14 13 1 0 2 -6 2 -13z m-370 -552 c0
-8 -4 -12 -9 -9 -5 3 -6 10 -3 15 9 13 12 11 12 -6z"/>
<path d="M1702 5834 c10 -10 20 -16 22 -13 3 3 -5 11 -17 18 -21 13 -21 12 -5
-5z"/>
<path d="M3226 5812 c-3 -5 1 -9 9 -9 8 0 12 4 9 9 -3 4 -7 8 -9 8 -2 0 -6 -4
-9 -8z"/>
<path d="M1826 5733 c-6 -14 -5 -15 5 -6 7 7 10 15 7 18 -3 3 -9 -2 -12 -12z"/>
<path d="M1470 5656 c0 -2 7 -9 15 -16 9 -7 15 -8 15 -2 0 5 -7 12 -15 16 -8
3 -15 4 -15 2z"/>
<path d="M2693 5627 c0 -8 6 -14 14 -14 9 0 10 4 2 14 -6 7 -12 13 -14 13 -1
0 -2 -6 -2 -13z"/>
<path d="M4064 5618 c-3 -5 -10 -6 -15 -3 -5 3 -6 -1 -3 -9 3 -8 -1 -25 -10
-38 -9 -12 -16 -18 -16 -12 0 5 5 15 11 21 8 8 7 13 -2 18 -7 5 -10 4 -6 -1 7
-13 -19 -47 -31 -40 -6 3 -8 -2 -5 -13 3 -10 -1 -22 -8 -26 -8 -6 -10 -4 -4 6
8 12 6 12 -9 0 -9 -8 -14 -21 -11 -29 4 -12 3 -13 -9 -3 -13 11 -15 9 -11 -8
4 -20 -13 -25 -26 -8 -3 5 -9 1 -12 -8 -5 -10 -3 -14 4 -9 7 4 10 1 7 -7 -3
-8 -14 -13 -24 -12 -10 1 -13 0 -6 -3 18 -8 14 -25 -5 -22 -13 2 -18 -3 -17
-19 0 -19 -2 -21 -15 -10 -12 10 -14 9 -8 -5 4 -12 2 -18 -8 -18 -8 0 -15 -5
-15 -11 0 -5 -6 -7 -12 -3 -10 6 -10 4 0 -8 10 -13 10 -18 1 -24 -8 -4 -9 -3
-5 4 4 7 2 12 -3 12 -6 0 -11 -7 -11 -15 0 -8 -3 -14 -7 -12 -5 1 -9 -1 -10
-6 -2 -4 -18 -21 -35 -38 -18 -17 -28 -28 -21 -25 6 4 14 2 17 -3 3 -5 -4 -11
-15 -14 -12 -3 -18 -10 -15 -16 4 -6 -1 -8 -12 -6 -15 3 -18 -2 -15 -23 4 -22
2 -24 -7 -12 -10 12 -11 11 -7 -8 4 -18 3 -21 -7 -13 -19 16 -27 2 -14 -23 10
-19 10 -20 -6 -7 -14 12 -16 12 -10 -4 5 -13 4 -16 -4 -11 -7 4 -12 2 -12 -4
0 -6 -5 -8 -12 -4 -7 4 -8 3 -4 -5 4 -6 13 -9 19 -5 7 3 4 -1 -5 -9 -10 -8
-14 -18 -10 -22 4 -5 2 -5 -4 -2 -15 9 -38 -19 -31 -37 7 -19 -18 -40 -35 -30
-10 6 -9 3 1 -9 12 -15 11 -17 -3 -17 -9 0 -18 -11 -22 -27 -10 -48 -14 -54
-26 -48 -7 4 -4 -1 7 -11 l20 -16 -20 4 c-15 4 -20 -1 -22 -19 -5 -51 -6 -53
-20 -41 -10 8 -12 7 -8 -5 4 -8 2 -18 -4 -21 -6 -4 -7 -14 -4 -23 5 -11 3 -14
-6 -8 -10 6 -11 3 -2 -14 10 -17 9 -21 -3 -21 -10 0 -13 -6 -9 -17 4 -11 3
-14 -5 -9 -8 5 -10 2 -6 -9 4 -8 1 -22 -6 -30 -7 -8 -8 -20 -4 -27 13 -20 13
-38 2 -38 -5 0 -8 -6 -5 -12 2 -7 -3 -19 -12 -26 -14 -10 -14 -11 0 -7 11 4
15 -1 15 -19 0 -14 -4 -22 -8 -20 -5 3 -5 10 -2 16 4 7 2 8 -4 4 -9 -5 -9 -13
-2 -27 6 -11 15 -17 20 -14 4 3 6 -4 3 -15 -3 -11 -10 -17 -16 -13 -5 3 -7 1
-3 -5 3 -5 3 -12 -1 -15 -5 -2 -3 -3 4 -1 6 1 13 -6 16 -17 5 -17 3 -18 -9 -8
-12 10 -13 9 -8 -5 3 -9 10 -16 14 -16 4 0 11 -7 14 -16 5 -13 4 -14 -7 -6
-11 9 -13 7 -11 -11 1 -12 3 -24 4 -27 1 -3 2 -9 1 -13 -1 -5 4 -5 10 -1 9 5
10 2 6 -9 -4 -10 -1 -17 6 -17 8 0 8 -3 -2 -9 -11 -7 -11 -9 0 -14 10 -4 10
-6 2 -6 -7 -1 -13 -10 -13 -22 0 -11 -4 -18 -9 -14 -5 3 -11 -5 -13 -17 -2
-13 -9 -22 -15 -21 -7 2 -10 -4 -7 -12 4 -8 11 -12 17 -8 6 3 7 1 3 -6 -6 -9
-11 -9 -21 -1 -11 9 -13 6 -11 -14 2 -14 -3 -27 -10 -30 -8 -3 -14 -13 -14
-21 0 -10 -5 -13 -12 -9 -6 4 -8 3 -4 -4 3 -6 1 -22 -5 -36 -11 -24 -21 -31
-42 -27 -5 1 -6 -3 -2 -9 3 -6 12 -8 18 -4 7 3 1 -4 -13 -16 -14 -12 -18 -18
-10 -14 13 7 13 6 0 -10 -14 -17 -15 -17 -31 3 -12 15 -19 17 -22 9 -4 -10 -6
-10 -6 0 -1 6 -13 12 -28 12 -22 0 -25 2 -13 10 10 7 3 8 -25 4 -78 -11 -129
-8 -119 8 4 7 3 8 -5 4 -6 -4 -9 -12 -6 -17 4 -5 1 -9 -4 -9 -6 0 -11 5 -11
10 0 6 -5 10 -11 10 -5 0 -8 -3 -6 -7 3 -5 -6 -9 -19 -9 -15 -1 -21 2 -17 10
4 6 -2 4 -12 -4 -17 -14 -18 -13 -11 4 7 20 7 20 -14 1 -17 -15 -23 -16 -29
-6 -7 11 -9 11 -13 1 -2 -8 -12 -14 -21 -16 -9 -1 -15 1 -12 5 2 4 -2 8 -10 8
-10 0 -11 -5 -5 -17 8 -14 5 -16 -16 -12 -18 3 -25 1 -23 -9 4 -23 -12 -49
-30 -50 -11 0 -12 -2 -3 -6 10 -4 9 -9 -5 -19 -14 -11 -14 -13 -2 -9 9 4 16 0
16 -9 0 -8 -7 -12 -16 -9 -11 4 -10 1 3 -9 19 -15 30 -72 12 -61 -5 4 -6 1 -2
-6 5 -7 15 -10 24 -6 12 4 11 1 -4 -16 l-19 -22 25 13 c22 12 23 11 13 -1 -10
-12 -8 -21 7 -46 16 -26 16 -33 5 -43 -9 -7 -15 -8 -18 0 -3 6 -4 5 -3 -2 2
-7 13 -12 25 -12 15 1 19 -2 13 -8 -6 -6 -8 -17 -5 -26 5 -11 3 -13 -8 -7 -8
5 -3 -4 11 -19 18 -20 20 -25 7 -20 -13 5 -16 2 -10 -12 5 -13 3 -15 -7 -9 -9
5 -11 4 -6 -4 4 -6 11 -9 16 -6 5 3 11 1 14 -4 3 -5 -1 -11 -9 -15 -8 -3 -15
-11 -14 -18 0 -10 2 -10 6 0 8 20 20 14 18 -10 -1 -13 -4 -23 -5 -23 -1 0 -3
-19 -4 -42 -1 -23 1 -40 5 -37 4 2 10 -3 13 -12 4 -11 2 -15 -7 -11 -7 3 -13
-3 -13 -14 0 -14 3 -15 13 -7 11 9 12 6 4 -16 -6 -14 -8 -26 -5 -26 4 0 1 -6
-5 -14 -9 -11 -9 -16 0 -22 8 -5 9 -3 4 6 -6 9 -4 11 5 5 9 -6 11 -4 5 5 -5 9
-4 11 4 6 7 -5 9 -12 3 -19 -5 -7 -8 -31 -7 -55 1 -23 -2 -45 -7 -48 -4 -3 -6
-10 -2 -15 3 -5 9 -7 13 -5 4 3 8 -2 8 -10 0 -10 -4 -11 -11 -4 -5 5 -15 10
-21 10 -5 0 -4 -4 3 -9 19 -12 24 -111 5 -104 -7 3 -13 0 -13 -6 0 -6 6 -11
13 -11 9 0 8 -3 -2 -9 -11 -7 -11 -9 0 -14 10 -4 10 -6 2 -6 -7 -1 -13 -6 -13
-12 0 -5 4 -8 9 -4 5 3 13 0 17 -6 5 -8 3 -9 -6 -4 -10 6 -12 4 -7 -8 4 -11 1
-17 -8 -17 -8 0 -15 -4 -15 -10 0 -5 8 -6 18 -3 14 6 15 4 5 -9 -7 -8 -10 -18
-6 -22 4 -4 -1 -4 -11 0 -18 7 -18 6 0 -22 11 -15 14 -25 7 -21 -6 4 -14 3
-18 -3 -3 -5 -1 -10 6 -10 8 0 8 -4 1 -13 -6 -7 -9 -25 -8 -40 2 -18 -1 -27
-11 -27 -8 0 -11 -5 -8 -10 4 -6 11 -7 17 -4 7 4 8 2 4 -5 -4 -6 -11 -9 -16
-6 -5 3 -9 -3 -9 -12 -1 -38 -5 -52 -12 -48 -3 3 -13 -3 -20 -12 -10 -12 -10
-14 -1 -9 6 4 12 3 12 -2 0 -6 -7 -13 -15 -16 -13 -5 -14 -10 -4 -28 12 -22
11 -22 -6 -8 -17 14 -17 14 -7 -7 9 -16 9 -24 0 -29 -7 -5 -8 -3 -3 7 5 8 4
11 -1 6 -5 -5 -9 -12 -9 -15 0 -4 -4 -13 -9 -21 -6 -9 -5 -12 1 -8 6 4 13 -3
16 -14 4 -16 2 -19 -11 -15 -13 5 -12 3 2 -9 19 -15 33 -50 15 -40 -10 7 0
-24 14 -43 8 -10 13 -10 25 0 14 12 14 10 2 -12 -12 -22 -12 -24 2 -12 13 10
18 10 24 1 4 -8 3 -9 -4 -5 -7 4 -12 1 -12 -9 0 -9 5 -13 10 -10 6 4 19 1 28
-7 15 -12 16 -11 3 5 -19 25 -6 21 20 -5 12 -13 19 -17 15 -10 -4 6 -2 12 3
12 6 0 11 -5 11 -12 0 -6 7 -3 15 8 8 10 15 15 14 9 -3 -21 1 -35 11 -35 5 0
9 3 9 8 -3 19 2 25 11 12 6 -10 10 -11 10 -2 0 6 5 12 11 12 5 0 8 -4 5 -9 -3
-5 1 -11 9 -14 10 -4 12 -1 8 10 -4 11 -2 14 5 9 7 -4 12 -2 12 6 0 10 2 10 9
-1 5 -8 14 -10 22 -6 9 6 11 3 6 -11 -6 -17 -6 -17 6 -2 12 15 14 15 25 0 9
-14 10 -14 6 -1 -4 12 3 15 28 14 18 0 38 -3 43 -7 21 -12 68 -2 76 17 7 20 8
20 9 0 l1 -20 9 20 c5 11 9 14 9 7 1 -7 6 -10 11 -7 6 4 8 11 5 16 -3 5 1 6 9
3 9 -3 16 -1 16 5 0 6 -5 11 -12 11 -6 0 -9 3 -6 6 4 3 17 0 30 -7 21 -11 22
-11 9 4 -12 15 -11 17 5 17 16 0 17 2 4 10 -13 9 -8 14 11 12 4 -1 9 8 12 18
3 11 1 20 -4 20 -5 0 -9 -5 -9 -12 0 -6 -3 -8 -7 -4 -5 4 1 14 11 22 12 8 15
14 7 14 -11 0 -11 3 0 16 10 13 10 17 0 24 -9 5 -10 10 -2 14 14 9 14 26 0 26
-5 0 -7 -5 -3 -12 4 -6 3 -8 -3 -5 -6 4 -8 19 -6 34 4 22 2 25 -6 13 -6 -8
-11 -10 -11 -4 0 5 5 15 11 21 8 8 7 13 -2 18 -8 6 -10 4 -5 -6 4 -8 0 -5 -8
5 -19 23 -22 51 -4 40 7 -4 8 -3 4 4 -4 6 -12 9 -20 6 -7 -3 -13 2 -13 10 0 8
4 13 9 10 4 -3 5 2 2 10 -3 9 -10 14 -14 11 -5 -3 -12 0 -16 6 -4 8 -3 9 4 5
8 -5 11 1 10 18 -1 15 -6 26 -11 26 -4 0 -5 6 0 13 11 18 13 38 2 31 -5 -3 -6
-10 -3 -16 4 -6 2 -8 -3 -5 -16 10 -2 57 21 69 11 6 21 10 21 9 0 -1 8 1 18 5
10 3 16 13 13 20 -3 8 -2 13 2 13 21 -3 32 2 26 13 -4 6 -3 8 4 4 6 -3 13 -2
17 3 3 6 13 7 22 4 13 -5 15 -2 9 13 -6 15 -5 16 5 7 9 -9 18 -9 40 3 34 17
39 30 7 14 -22 -11 -22 -10 -4 4 11 9 30 14 42 12 17 -3 21 -1 17 10 -6 16 8
19 24 3 7 -7 10 -3 8 15 -3 21 0 24 14 17 10 -6 23 -5 34 1 10 5 25 7 34 4 12
-5 13 -3 7 7 -5 7 -2 6 6 -3 16 -17 73 -21 87 -6 5 5 3 6 -4 2 -7 -4 -13 -2
-13 3 0 16 11 13 32 -6 18 -16 18 -16 12 3 -4 10 -4 16 1 12 4 -4 14 -3 21 3
8 7 14 7 19 -1 4 -6 1 -9 -6 -8 -6 2 -14 -4 -16 -12 -3 -10 -2 -11 4 -4 4 6
16 10 26 8 9 -1 15 1 13 5 -3 4 4 13 16 20 11 7 17 8 14 2 -4 -5 -2 -12 4 -16
5 -3 10 1 10 9 0 22 34 38 48 24 9 -9 12 -9 12 1 0 11 3 11 17 0 15 -13 15
-12 3 11 l-13 25 22 -19 c18 -16 21 -17 16 -3 -5 12 -2 15 14 12 12 -2 19 0
16 5 -3 6 -1 18 5 27 11 17 11 17 6 1 -8 -25 11 -22 24 3 7 12 18 18 26 15 13
-5 19 6 15 27 -1 5 8 5 20 2 15 -5 19 -4 15 4 -4 6 0 12 8 12 32 3 36 4 36 12
0 4 0 10 0 13 0 4 -6 3 -13 -2 -7 -5 -4 -1 6 8 11 10 22 16 26 15 3 -2 14 4
24 15 19 21 15 23 -16 7 -19 -9 -19 -8 3 10 13 10 28 17 32 15 5 -3 11 2 14
10 3 9 10 14 14 11 5 -3 11 -1 14 4 4 5 1 13 -5 17 -8 5 -9 3 -4 -6 5 -9 4
-11 -4 -6 -17 11 -4 25 19 21 13 -2 17 1 14 10 -6 14 29 39 39 29 3 -3 4 6 3
20 -3 23 -1 24 12 14 13 -11 14 -11 8 0 -9 16 12 44 27 35 6 -3 7 -1 3 5 -4 6
-14 9 -24 6 -15 -5 -15 -5 1 6 9 6 22 8 29 4 6 -4 8 -3 4 4 -3 6 4 18 16 26
12 9 18 16 14 16 -5 0 -19 -8 -30 -17 -16 -14 -18 -14 -8 -2 6 9 8 20 4 24 -4
5 -2 6 3 2 6 -3 21 1 35 9 24 14 24 15 2 9 -23 -7 -23 -6 -5 14 19 23 28 28
17 9 -4 -7 -3 -8 5 -4 9 6 9 11 0 22 -10 12 -9 13 4 9 8 -4 18 -1 23 6 4 8 3
10 -4 5 -7 -4 -12 -2 -12 3 0 10 14 15 33 12 5 -1 6 3 3 8 -4 5 -2 12 3 16 6
3 8 12 5 19 -3 8 0 17 7 22 8 5 10 3 4 -7 -7 -12 -6 -12 6 0 11 10 11 15 2 18
-7 3 -13 9 -13 14 0 4 7 6 15 3 11 -4 13 -2 9 9 -3 10 2 20 15 26 13 7 18 17
14 28 -4 11 -3 14 5 9 8 -5 10 -1 5 10 -4 12 -3 15 5 10 7 -4 12 -1 12 9 0 10
-5 13 -12 9 -7 -4 -8 -3 -4 5 4 6 12 9 17 6 5 -4 10 0 11 7 0 7 2 18 3 23 2 6
3 16 4 23 0 7 6 10 13 6 8 -5 9 -2 5 10 -4 10 -3 15 3 11 5 -3 12 5 16 19 3
13 12 27 21 30 8 3 11 11 8 16 -4 6 -1 18 6 26 17 20 -6 37 -39 29 -15 -4 -21
-2 -17 5 10 16 -1 12 -16 -7 -12 -15 -12 -16 1 -8 13 8 13 6 1 -8 -7 -9 -17
-14 -22 -11 -14 8 -11 16 4 8 6 -4 8 -3 4 1 -4 5 -14 10 -22 11 -11 2 -12 -2
-5 -16 8 -15 6 -17 -10 -13 -12 3 -20 0 -20 -8 0 -8 -6 -5 -15 7 -11 13 -13
14 -9 3 4 -13 -1 -16 -20 -14 -15 2 -24 -1 -20 -6 3 -5 10 -6 16 -3 7 4 8 2 4
-4 -4 -6 -14 -8 -23 -5 -12 5 -14 3 -8 -8 5 -8 -1 -6 -13 4 -20 19 -21 18 -15
-5 2 -13 1 -19 -4 -13 -4 6 -14 11 -22 13 -12 3 -12 0 -1 -13 7 -8 10 -18 6
-22 -3 -3 -6 -1 -6 6 0 8 -6 11 -16 7 -8 -3 -12 -2 -9 4 3 6 4 10 1 10 -3 0
-13 -12 -21 -27 -9 -16 -14 -20 -11 -10 4 12 2 17 -6 14 -7 -2 -12 -10 -10
-17 2 -11 0 -11 -12 -1 -11 9 -16 9 -22 0 -5 -8 -3 -10 7 -4 11 6 12 5 2 -5
-10 -11 -15 -11 -28 0 -13 11 -14 10 -9 -5 5 -13 4 -16 -4 -11 -7 4 -12 3 -12
-2 0 -16 -45 -31 -64 -20 -16 9 -16 7 -7 -10 10 -18 8 -20 -23 -17 -24 1 -33
-2 -32 -13 0 -8 -6 -17 -14 -19 -12 -4 -12 -3 -2 5 11 7 11 10 -2 15 -9 4 -15
1 -13 -6 1 -7 -3 -11 -10 -10 -7 2 -10 -4 -7 -12 4 -10 0 -13 -16 -10 -18 4
-21 1 -17 -17 4 -15 3 -18 -5 -10 -8 8 -15 7 -24 -6 -12 -15 -13 -15 -9 6 2
13 0 20 -6 17 -5 -4 -7 -10 -4 -15 3 -4 -4 -19 -16 -31 l-20 -24 11 25 11 25
-20 -24 c-12 -12 -18 -28 -14 -34 3 -6 1 -7 -6 -3 -6 4 -9 13 -5 19 3 7 -4 1
-16 -13 -12 -14 -18 -19 -14 -11 5 10 3 12 -5 7 -9 -6 -9 -11 0 -22 10 -12 10
-15 -2 -12 -8 2 -19 10 -26 18 -9 12 -10 9 -7 -15 2 -17 1 -25 -2 -18 -4 9
-11 7 -26 -7 -12 -11 -17 -24 -12 -32 4 -7 4 -10 -1 -6 -4 4 -14 0 -22 -8 -8
-8 -19 -12 -24 -9 -5 4 -6 -1 -3 -10 5 -11 2 -14 -10 -9 -12 5 -15 2 -9 -12 4
-12 3 -15 -5 -10 -8 4 -12 0 -12 -11 0 -15 -2 -16 -10 -3 -8 13 -10 12 -11 -5
-1 -11 -1 -23 0 -27 0 -4 -7 -4 -16 -1 -11 4 -14 3 -9 -5 4 -7 2 -12 -3 -12
-6 0 -11 -8 -11 -18 0 -21 -44 -67 -57 -59 -5 3 -9 -3 -9 -13 0 -10 5 -16 11
-14 5 3 2 -1 -7 -9 -10 -8 -18 -22 -18 -31 0 -10 -4 -15 -9 -11 -5 3 -13 0
-17 -6 -4 -7 -3 -9 4 -5 6 3 13 2 17 -4 3 -5 -2 -10 -11 -10 -10 0 -14 -3 -11
-7 4 -3 -2 -13 -14 -21 -15 -10 -18 -17 -10 -25 15 -15 14 -30 -1 -21 -7 4 -4
-3 7 -16 l20 -23 -20 11 c-17 9 -21 7 -21 -8 0 -10 5 -16 10 -13 5 4 6 1 2 -6
-5 -7 -15 -10 -25 -7 -12 5 -11 2 3 -9 19 -14 19 -15 2 -15 -11 0 -25 -8 -32
-17 -12 -17 -13 -17 -19 -1 -6 15 -8 15 -26 -3 -10 -10 -19 -23 -19 -28 0 -5
-6 -14 -14 -20 -10 -8 -16 -8 -25 2 -6 8 -7 18 -3 22 4 5 2 5 -5 1 -6 -3 -10
-15 -8 -25 3 -15 -1 -18 -17 -13 -17 4 -20 2 -14 -13 6 -16 4 -16 -11 -4 -15
12 -16 12 -11 -2 4 -9 1 -16 -8 -16 -7 0 -10 5 -7 11 4 6 -1 5 -10 -2 -9 -8
-21 -11 -27 -7 -5 3 -10 -2 -10 -12 -1 -17 -1 -17 -12 1 -13 23 -19 78 -7 71
4 -3 10 -1 14 5 3 6 -4 10 -17 11 l-23 0 23 9 c12 5 22 12 22 14 0 3 -6 3 -12
1 -10 -4 -12 8 -11 41 1 26 4 53 8 62 4 12 3 13 -10 2 -19 -16 -19 -9 0 37 14
33 14 34 -2 22 -15 -13 -15 -12 -4 9 7 13 11 33 9 46 -1 13 3 30 10 39 10 12
10 17 1 23 -7 4 -9 3 -5 -4 3 -6 3 -13 -2 -16 -4 -2 -7 14 -7 37 1 23 -4 48
-9 56 -9 12 -8 13 3 6 11 -6 13 -1 9 24 -3 18 0 35 5 38 6 4 7 1 2 -8 -7 -12
-6 -12 6 0 11 10 11 15 2 18 -7 3 -13 9 -13 15 0 6 7 8 14 5 10 -4 13 -1 9 8
-3 8 -9 13 -13 10 -5 -3 -7 2 -6 11 1 8 8 19 15 23 7 5 13 12 14 17 1 5 5 8 9
7 4 -2 4 5 1 14 -5 12 -3 14 8 8 12 -8 12 -6 1 8 -12 14 -11 16 6 12 25 -4 49
19 31 31 -8 5 -9 3 -4 -6 5 -9 4 -11 -4 -6 -15 10 -3 29 15 22 11 -4 12 -2 4
14 -7 13 -7 21 2 26 7 5 8 2 3 -7 -6 -11 -5 -12 5 -2 10 9 10 15 1 26 -15 18
-4 47 18 47 14 0 14 2 1 10 -13 8 -13 10 2 10 9 0 20 5 24 12 5 8 2 9 -10 5
-10 -4 -15 -3 -11 3 3 6 13 10 20 10 9 0 12 6 8 15 -3 9 -2 15 3 14 21 -4 25
2 13 18 -12 14 -12 16 0 8 11 -6 13 -4 7 10 -6 16 -4 16 10 4 16 -13 16 -12 5
8 -10 20 -9 22 5 16 14 -5 16 -2 12 15 -4 12 -2 20 2 17 5 -3 11 4 15 15 4 11
11 18 16 15 9 -6 11 2 11 44 1 24 1 24 16 5 11 -15 13 -15 9 -2 -3 9 1 22 9
29 12 9 12 15 2 27 -11 13 -10 15 4 9 10 -3 17 -3 17 1 -4 27 3 44 16 38 10
-3 15 1 16 12 0 10 3 12 6 5 2 -7 9 -13 14 -13 6 0 7 5 4 10 -5 9 24 15 48 11
5 -1 6 3 2 9 -3 6 -12 7 -18 4 -7 -4 -8 -3 -4 2 5 5 12 9 15 9 4 0 13 4 21 9
11 7 12 6 6 -5 -5 -8 5 1 22 19 29 30 51 43 38 23 -3 -5 -1 -13 5 -16 6 -4 10
-3 9 2 -5 27 2 45 16 39 8 -3 15 -1 15 5 0 6 4 8 9 5 4 -3 17 4 27 16 11 12
13 18 7 14 -29 -17 -10 10 40 55 28 27 46 49 40 49 -7 0 -13 -4 -13 -9 0 -5
-7 -12 -15 -15 -13 -5 -12 -1 2 18 10 13 21 22 25 20 4 -2 8 6 10 18 2 13 9
22 15 21 6 -1 14 4 17 13 4 10 2 13 -6 8 -7 -5 -8 -3 -4 5 5 7 15 10 23 6 13
-4 14 -3 4 9 -15 17 -5 39 12 30 7 -3 4 1 -6 9 -16 13 -16 15 -2 21 9 3 13 2
10 -4 -3 -6 -2 -10 3 -10 5 0 12 9 15 20 3 12 1 18 -5 14 -6 -4 -8 -1 -6 7 3
8 10 13 16 12 6 -2 9 4 6 12 -4 8 -1 15 6 15 6 0 8 5 5 10 -5 8 -12 7 -23 -2
-15 -12 -16 -11 -4 4 8 10 17 17 20 16 20 -2 25 3 12 12 -12 8 -12 10 5 10 17
0 17 2 5 10 -12 8 -12 10 -1 10 10 0 11 3 2 14 -10 12 -8 17 9 26 17 9 19 14
9 26 -9 11 -9 14 1 14 10 0 10 3 0 16 -8 8 -9 14 -4 13 21 -4 28 2 14 11 -10
6 -11 10 -2 10 7 0 12 13 12 31 0 20 4 28 12 23 7 -5 8 -3 2 7 -14 22 -13 39
1 39 15 0 15 31 0 42 -6 5 -5 8 3 8 10 0 10 5 1 23 l-12 22 24 -20 c18 -15 20
-16 10 -2 -11 14 -11 20 0 34 8 9 9 14 3 10 -7 -4 -10 6 -10 29 1 19 6 32 11
30 6 -2 11 7 11 20 1 13 -3 24 -10 24 -6 0 -4 5 4 10 10 6 11 10 3 10 -7 0
-13 5 -13 11 0 5 5 7 10 4 6 -3 11 -1 11 4 1 6 2 17 3 24 1 6 -2 18 -7 25 -6
8 -5 12 3 12 10 0 10 3 0 16 -8 8 -9 14 -4 13 22 -4 25 2 7 19 -10 9 -14 14
-8 10 7 -4 15 -5 18 -1 12 12 7 23 -10 24 -15 0 -15 2 2 9 11 5 14 9 8 9 -7 1
-13 6 -13 12 0 5 4 8 9 5 5 -3 11 1 14 9 4 9 1 12 -7 9 -7 -3 -13 2 -13 10 0
8 4 13 9 10 13 -8 9 11 -4 25 -11 10 -9 11 6 5 18 -7 18 -6 1 22 -10 16 -11
21 -2 12 8 -10 18 -18 23 -18 4 0 3 5 -4 12 -7 7 -12 20 -12 31 0 11 -5 15
-11 11 -8 -4 -8 0 0 15 13 24 23 29 15 7 -3 -8 -1 -16 4 -20 10 -6 9 24 -2 42
-4 7 -2 12 4 12 8 0 7 5 -2 13 -15 15 -46 18 -54 5z m9 -13 c-3 -9 -8 -14 -10
-11 -3 3 -2 9 2 15 9 16 15 13 8 -4z m-295 -330 c-3 -3 -9 2 -12 12 -6 14 -5
15 5 6 7 -7 10 -15 7 -18z m-31 -18 c0 -8 -6 -14 -14 -14 -9 0 -10 4 -2 14 6
7 12 13 14 13 1 0 2 -6 2 -13z m340 -2 c0 -8 -4 -12 -9 -9 -5 3 -6 10 -3 15 9
13 12 11 12 -6z m-643 -493 c3 -5 -1 -9 -9 -9 -8 0 -12 4 -9 9 3 4 7 8 9 8 2
0 6 -4 9 -8z m-34 -136 c0 -2 -7 -6 -15 -10 -8 -3 -15 -1 -15 4 0 6 7 10 15
10 8 0 15 -2 15 -4z m360 -292 c0 -8 -19 -13 -24 -6 -3 5 1 9 9 9 8 0 15 -2
15 -3z m-365 -22 c-3 -3 -11 0 -18 7 -9 10 -8 11 6 5 10 -3 15 -9 12 -12z m85
-186 c0 -3 -4 -8 -10 -11 -5 -3 -10 -1 -10 4 0 6 5 11 10 11 6 0 10 -2 10 -4z
m1130 -121 c0 -12 -19 -12 -23 0 -4 9 -1 12 9 8 7 -3 14 -7 14 -8z m-185 -366
c-4 -5 -12 -9 -18 -8 -9 0 -8 2 1 6 6 2 9 10 6 15 -4 7 -2 8 5 4 6 -4 9 -12 6
-17z m-1620 -218 c3 -5 2 -12 -3 -15 -5 -3 -9 1 -9 9 0 17 3 19 12 6z m710
-171 c-3 -5 -11 -10 -16 -10 -6 0 -7 5 -4 10 3 6 11 10 16 10 6 0 7 -4 4 -10z
m-108 -153 c0 -8 -6 -14 -14 -14 -9 0 -10 4 -2 14 6 7 12 13 14 13 1 0 2 -6 2
-13z m-154 -228 c-8 -8 -13 -7 -18 2 -5 8 -4 10 3 5 7 -4 12 -2 12 5 0 7 3 9
7 6 4 -4 2 -12 -4 -18z m-93 -533 c0 -2 -7 -7 -16 -10 -8 -3 -12 -2 -9 4 6 10
25 14 25 6z"/>
<path d="M3227 5455 c-4 -8 -3 -16 1 -19 4 -3 9 4 9 15 2 23 -3 25 -10 4z"/>
<path d="M4954 5421 c3 -5 -16 -8 -43 -7 -42 1 -48 -1 -45 -17 3 -16 1 -17
-12 -6 -12 10 -13 9 -8 -6 6 -14 4 -16 -6 -10 -10 6 -12 4 -7 -8 3 -8 -1 -21
-9 -28 -12 -10 -12 -14 -2 -21 9 -7 6 -8 -10 -5 -19 5 -21 3 -11 -9 6 -7 9
-21 5 -29 -3 -9 1 -18 10 -22 13 -5 13 -7 2 -14 -9 -6 -6 -9 11 -9 23 0 24 -1
6 -13 -14 -11 -15 -16 -5 -22 9 -5 11 -4 6 3 -4 7 -2 12 3 12 6 0 11 -4 11
-10 0 -5 5 -10 11 -10 5 0 7 5 3 11 -3 6 5 3 20 -6 22 -15 24 -20 14 -34 -11
-14 -11 -14 3 -3 9 7 24 10 33 6 9 -3 16 -2 16 3 0 12 30 10 50 -2 8 -5 6 2
-5 15 l-20 23 22 -12 c19 -10 24 -8 39 14 9 14 21 22 27 18 6 -3 7 -1 3 6 -4
6 -11 9 -16 6 -5 -3 -12 -1 -15 5 -4 6 -1 9 7 8 7 -2 12 3 10 11 -2 8 3 11 12
8 9 -4 13 0 11 11 -2 9 -4 23 -4 30 -1 7 -6 10 -13 6 -8 -5 -9 -2 -5 9 3 9 1
19 -4 23 -6 3 -9 15 -6 25 3 11 1 17 -3 14 -5 -3 -13 3 -19 12 -6 10 -11 12
-11 6 0 -7 -5 -13 -11 -13 -5 0 -7 5 -4 10 3 6 -1 10 -9 10 -9 0 -16 5 -16 10
0 6 -5 10 -11 10 -5 0 -8 -4 -5 -9z m71 -210 c3 -5 2 -12 -3 -15 -5 -3 -9 1
-9 9 0 17 3 19 12 6z"/>
<path d="M4807 5356 c-4 -10 -1 -13 8 -9 8 3 12 9 9 14 -7 12 -11 11 -17 -5z"/>
<path d="M2535 5260 c3 -5 8 -10 11 -10 2 0 4 5 4 10 0 6 -5 10 -11 10 -5 0
-7 -4 -4 -10z"/>
<path d="M2568 5257 c10 -12 5 -13 -27 -10 -22 2 -42 -1 -46 -7 -3 -5 -11 -10
-17 -10 -7 0 -7 4 1 13 8 10 7 14 -4 14 -8 0 -12 -4 -9 -9 3 -4 -2 -11 -10
-14 -9 -3 -13 -10 -10 -15 3 -5 -2 -6 -10 -3 -9 3 -13 11 -9 17 4 6 1 7 -8 2
-7 -5 -27 -10 -44 -11 -43 -2 -45 -3 -45 -16 0 -9 3 -9 12 0 15 15 28 15 28 1
0 -5 -4 -8 -9 -4 -5 3 -12 1 -16 -5 -4 -6 -12 -7 -18 -3 -21 13 -37 12 -37 -3
0 -11 -4 -12 -19 -4 -14 7 -22 7 -26 0 -4 -6 -11 -8 -16 -5 -5 4 -12 -1 -15
-10 -5 -11 -10 -13 -19 -5 -13 11 -29 -2 -30 -24 0 -5 -8 -10 -18 -12 -9 -1
-15 2 -11 7 3 5 10 7 15 4 5 -3 6 1 3 10 -5 13 -9 12 -25 -6 -11 -12 -19 -17
-19 -10 0 7 -5 9 -10 6 -6 -4 -7 -12 -3 -18 4 -8 1 -7 -9 1 -18 15 -34 1 -23
-20 4 -7 -1 -4 -9 6 -14 17 -16 17 -16 4 0 -22 -16 -32 -26 -17 -5 8 -3 9 6 4
9 -6 11 -4 6 4 -8 12 -20 7 -22 -10 -1 -5 -2 -12 -3 -15 0 -4 -7 -1 -15 6 -12
9 -17 8 -27 -8 -7 -12 -19 -18 -27 -14 -10 3 -13 1 -8 -6 4 -7 2 -12 -3 -12
-6 0 -11 6 -11 13 0 8 -3 9 -8 1 -4 -6 -15 -10 -25 -8 -11 1 -16 0 -13 -3 3
-3 -2 -12 -12 -20 -11 -9 -11 -12 -2 -7 12 6 13 4 3 -6 -15 -16 -46 -23 -37
-9 3 5 10 6 16 3 6 -4 8 -2 5 4 -4 5 -16 8 -27 5 -11 -3 -18 -8 -16 -12 2 -3
-3 -15 -11 -26 -12 -16 -14 -16 -10 -3 3 10 1 20 -5 24 -7 4 -8 3 -4 -4 4 -7
2 -12 -4 -12 -7 0 -10 -6 -7 -14 4 -11 -1 -13 -19 -10 -18 3 -23 1 -18 -7 5
-9 2 -10 -10 -6 -10 4 -15 3 -11 -3 3 -6 1 -10 -5 -10 -6 0 -8 -5 -4 -12 5 -8
0 -7 -11 2 -17 14 -18 13 -12 -4 6 -16 5 -17 -7 -7 -11 9 -16 9 -22 0 -5 -8
-3 -9 7 -4 12 8 12 6 0 -8 -16 -20 -36 -23 -25 -4 6 9 5 9 -8 0 -8 -7 -19 -9
-24 -5 -4 4 -2 -1 5 -11 12 -15 12 -17 -4 -11 -14 6 -16 4 -10 -6 6 -10 3 -12
-13 -8 -13 4 -27 -1 -38 -13 -9 -10 -21 -16 -27 -12 -6 3 -7 1 -3 -6 6 -9 12
-9 24 1 15 12 16 11 3 -4 -7 -10 -17 -15 -22 -12 -5 3 -9 0 -9 -5 0 -6 -5 -11
-11 -11 -5 0 -7 5 -3 12 4 6 -4 3 -18 -8 -14 -10 -24 -21 -22 -23 2 -2 10 2
18 8 11 9 16 9 22 0 4 -7 3 -9 -3 -6 -6 4 -16 0 -23 -8 -6 -7 -18 -11 -26 -8
-10 3 -12 0 -9 -10 5 -11 0 -14 -18 -12 -20 3 -24 -1 -20 -19 4 -17 3 -18 -6
-6 -8 11 -11 12 -11 2 0 -7 -4 -10 -10 -7 -6 4 -7 -1 -3 -11 4 -11 3 -15 -5
-10 -6 3 -13 -3 -17 -14 -6 -18 -16 -24 -36 -22 -4 1 -10 -10 -13 -23 -4 -14
-12 -25 -18 -25 -9 0 -9 3 0 12 20 20 14 30 -6 11 -11 -10 -17 -21 -15 -25 2
-4 -8 -19 -22 -34 -14 -15 -25 -23 -25 -19 0 4 -7 2 -15 -5 -9 -7 -14 -19 -11
-26 7 -17 -10 -28 -20 -13 -5 8 -3 9 6 4 9 -5 11 -4 6 4 -10 16 -26 4 -19 -14
4 -11 1 -13 -13 -8 -12 4 -15 3 -10 -5 4 -7 2 -12 -5 -12 -8 0 -7 -5 2 -17 13
-15 12 -15 -8 -5 -16 9 -24 9 -29 0 -4 -7 -3 -8 4 -4 7 4 12 2 12 -3 0 -6 -4
-11 -10 -11 -5 0 -10 -6 -10 -14 0 -9 -7 -12 -22 -9 -17 3 -19 2 -9 -5 11 -8
9 -16 -14 -46 -31 -41 -43 -48 -19 -11 9 14 14 28 11 31 -3 3 -8 -4 -12 -15
-3 -12 -10 -19 -15 -16 -4 3 -7 -6 -5 -20 1 -14 -2 -28 -8 -32 -6 -3 -7 -1 -3
5 4 7 2 12 -5 12 -6 0 -9 -8 -6 -19 4 -15 1 -18 -12 -13 -14 5 -14 4 -1 -13
14 -17 14 -18 -9 -6 -13 7 -21 8 -17 3 3 -6 -4 -18 -16 -26 -12 -9 -18 -16
-12 -16 5 0 15 5 22 10 8 7 9 7 3 -1 -5 -6 -7 -19 -4 -28 4 -13 3 -14 -5 -1
-9 12 -14 12 -31 -4 -17 -16 -19 -22 -8 -34 10 -13 9 -15 -5 -9 -13 5 -16 0
-13 -26 2 -18 1 -26 -2 -19 -2 6 -9 12 -14 12 -6 0 -7 -4 -4 -10 3 -5 1 -10
-5 -10 -6 0 -8 -5 -4 -12 5 -8 2 -9 -11 -4 -16 6 -16 4 -4 -11 12 -15 12 -16
-5 -10 -15 6 -17 5 -8 -6 9 -10 8 -19 -3 -34 -8 -11 -11 -24 -7 -28 4 -5 1 -5
-5 -1 -10 5 -9 13 3 32 15 23 15 24 0 18 -9 -4 -14 -9 -12 -12 3 -3 1 -11 -5
-18 -6 -8 -9 -20 -6 -28 4 -10 0 -14 -13 -11 -17 3 -18 0 -9 -22 9 -24 8 -25
-8 -12 -10 7 -15 9 -10 4 4 -4 -1 -18 -10 -29 -13 -15 -14 -17 -2 -8 13 9 16
9 16 -3 0 -8 -9 -15 -21 -15 -17 0 -18 -2 -6 -10 8 -5 10 -10 4 -10 -6 0 -14
-14 -18 -31 -3 -19 -10 -28 -17 -23 -8 4 -9 0 -4 -15 6 -19 -2 -26 -27 -22 -4
0 -5 -6 -2 -14 4 -9 1 -15 -7 -15 -8 0 -6 -5 6 -13 17 -13 17 -14 -4 -20 -15
-4 -19 -10 -14 -23 5 -12 3 -15 -6 -9 -10 6 -11 3 -2 -13 8 -15 8 -23 -1 -28
-7 -5 -8 -3 -3 6 5 9 4 11 -4 6 -9 -6 -9 -11 1 -24 11 -13 11 -14 -1 -7 -11 6
-13 4 -8 -9 5 -11 3 -15 -5 -10 -8 5 -9 2 -5 -10 4 -9 3 -15 -2 -12 -5 3 -12
-1 -15 -10 -3 -8 -2 -12 4 -9 6 3 10 1 10 -4 0 -10 -14 -15 -33 -12 -5 1 -6
-3 -2 -9 3 -6 11 -8 16 -5 5 4 9 1 9 -4 0 -6 -5 -11 -10 -11 -6 0 -10 -6 -9
-12 3 -28 -2 -48 -12 -48 -5 0 -7 6 -3 13 4 6 3 9 -1 4 -11 -9 -14 -48 -4 -41
4 2 10 0 13 -5 3 -5 -2 -11 -12 -13 -19 -5 -27 -38 -10 -38 5 0 6 -5 3 -10 -5
-8 -12 -7 -23 2 -13 11 -12 8 2 -14 13 -20 14 -28 5 -34 -8 -4 -9 -3 -5 4 5 8
1 10 -9 5 -13 -4 -14 -8 -4 -14 10 -6 10 -13 1 -33 -6 -15 -7 -28 -2 -31 5 -3
7 -12 4 -20 -4 -8 -11 -12 -18 -8 -6 4 -4 -2 4 -12 8 -10 10 -16 4 -12 -7 4
-14 0 -18 -8 -3 -8 0 -17 6 -21 7 -5 8 -2 3 6 -5 9 -4 11 4 6 8 -6 9 -12 2
-20 -6 -7 -7 -17 -3 -21 4 -5 2 -5 -5 -1 -6 3 -14 2 -18 -4 -3 -5 -1 -10 4
-10 6 0 11 -8 11 -17 0 -14 -2 -15 -9 -5 -6 11 -9 9 -13 -6 -4 -16 -2 -19 11
-15 12 3 11 1 -3 -11 -14 -11 -15 -16 -6 -16 9 0 8 -5 -6 -16 -10 -8 -14 -13
-8 -10 7 3 14 -1 18 -9 3 -9 0 -15 -10 -15 -14 0 -14 -2 0 -16 22 -22 20 -27
-6 -13 l-23 12 20 -23 c11 -13 14 -20 8 -16 -7 4 -13 2 -13 -3 0 -6 6 -11 13
-11 8 0 7 -4 -3 -10 -10 -6 -11 -10 -2 -10 6 0 12 -5 12 -11 0 -5 -4 -8 -9 -5
-5 3 -11 -1 -15 -9 -3 -8 0 -17 6 -21 7 -5 8 -2 3 6 -6 9 -4 11 5 5 10 -6 10
-10 -2 -19 -8 -6 -13 -17 -10 -25 3 -8 0 -11 -7 -7 -7 5 -9 1 -4 -10 6 -16 7
-15 20 2 7 10 13 13 13 7 0 -7 -5 -15 -10 -18 -6 -4 -7 -11 -4 -17 5 -7 2 -8
-6 -3 -9 6 -10 2 -5 -15 4 -12 8 -28 9 -34 1 -6 5 -17 10 -24 5 -8 3 -11 -5
-10 -7 2 -14 -9 -15 -24 -2 -20 2 -28 14 -29 14 0 14 -2 -2 -8 -14 -5 -16 -10
-8 -15 9 -5 8 -15 -2 -40 -11 -27 -11 -33 0 -33 7 0 10 5 7 10 -4 6 -1 7 6 3
9 -6 8 -13 -5 -27 -13 -15 -14 -18 -3 -14 10 4 15 -1 16 -15 1 -11 -2 -20 -7
-20 -5 0 -6 -7 -3 -17 4 -11 3 -14 -5 -9 -7 4 -12 2 -12 -3 0 -10 14 -15 33
-12 4 0 7 -4 7 -9 0 -6 -6 -10 -14 -10 -8 0 -17 -4 -21 -9 -3 -6 7 -8 22 -5
17 3 23 1 16 -4 -7 -4 -14 -17 -16 -27 -1 -11 -6 -25 -10 -31 -4 -7 0 -18 9
-25 14 -12 14 -14 -3 -27 -17 -13 -17 -14 4 -7 19 5 22 3 16 -11 -4 -12 -3
-15 5 -10 8 5 10 2 6 -8 -3 -9 -11 -13 -17 -9 -6 3 -7 1 -3 -5 4 -6 14 -9 24
-6 16 5 16 5 0 -8 -11 -10 -14 -19 -7 -29 13 -20 11 -31 -3 -23 -7 4 -3 -4 10
-18 17 -19 20 -27 10 -31 -8 -3 -5 -6 7 -7 19 -1 19 -1 2 -11 -18 -11 -14 -29
6 -29 7 0 6 4 -3 11 -11 8 -12 10 -1 7 8 -2 15 -17 17 -32 3 -27 2 -27 -12
-10 -13 17 -13 16 -3 -8 7 -15 15 -25 20 -23 4 3 11 0 15 -6 4 -7 3 -9 -2 -6
-6 3 -16 -4 -24 -16 -12 -19 -11 -21 2 -10 8 7 18 10 21 6 4 -3 -1 -12 -11
-19 -15 -12 -15 -13 7 -9 18 3 22 2 14 -6 -8 -8 -6 -17 8 -32 14 -15 16 -24 8
-34 -9 -10 -8 -13 2 -13 12 0 12 -2 1 -9 -11 -6 -10 -9 5 -13 13 -3 19 -16 21
-39 1 -18 8 -37 15 -41 7 -5 8 -8 1 -8 -6 0 -11 -7 -11 -15 0 -11 4 -12 13 -4
9 8 11 5 7 -10 -3 -12 -1 -21 6 -21 6 0 11 -9 11 -20 0 -11 -5 -20 -12 -20 -6
0 -8 -3 -5 -6 4 -4 12 -2 20 4 10 8 13 6 14 -9 1 -12 -3 -17 -9 -13 -7 4 -8 2
-4 -4 4 -7 15 -12 24 -12 13 0 14 -2 4 -9 -11 -7 -11 -9 2 -14 9 -4 15 -10 15
-14 -4 -16 14 -43 24 -36 6 4 7 1 2 -7 -6 -10 -11 -9 -22 5 -7 11 -13 14 -13
7 0 -7 9 -17 19 -24 16 -10 18 -15 8 -27 -9 -12 -9 -13 1 -7 7 4 12 2 12 -4 0
-6 5 -8 10 -5 9 6 15 -22 11 -54 -2 -8 2 -10 10 -5 9 5 10 2 5 -11 -5 -15 -4
-16 9 -5 15 13 19 8 16 -22 -1 -10 2 -18 7 -18 6 0 13 -11 16 -25 4 -14 11
-25 16 -25 5 0 7 -10 5 -22 -4 -21 -3 -22 9 -5 12 16 14 16 20 2 3 -9 2 -13
-4 -10 -6 3 -10 2 -10 -3 0 -6 6 -12 14 -15 8 -3 20 -16 26 -28 9 -16 9 -20 0
-14 -9 6 -9 2 -1 -14 7 -11 14 -21 17 -21 3 0 3 4 0 8 -3 5 1 9 8 9 8 0 12 -7
8 -15 -4 -11 -1 -13 7 -7 10 6 11 3 2 -13 -8 -15 -8 -23 1 -28 7 -4 8 -3 4 4
-4 7 -2 12 3 12 10 0 15 -14 12 -34 -1 -5 6 -6 15 -2 14 5 15 4 4 -9 -7 -8 -9
-15 -4 -15 5 0 22 -11 38 -25 16 -14 26 -25 22 -25 -7 0 4 -15 41 -54 12 -13
19 -28 15 -32 -4 -5 0 -3 10 4 14 11 16 9 14 -18 -1 -19 1 -27 7 -21 6 6 15 5
23 -4 17 -17 18 -29 2 -19 -7 4 -8 3 -4 -4 4 -6 13 -9 21 -5 10 3 15 -1 15
-15 0 -11 8 -26 17 -33 11 -10 14 -10 9 -2 -4 7 -2 13 3 13 11 0 15 -15 12
-34 -1 -5 5 -4 13 3 12 10 14 9 8 -11 -5 -21 -4 -22 12 -9 9 8 19 11 23 7 3
-3 2 -6 -4 -6 -5 0 -10 -7 -10 -15 0 -12 3 -12 16 -2 12 9 13 9 7 0 -4 -8 -2
-13 5 -13 8 0 8 -4 1 -13 -8 -10 -6 -13 8 -13 10 0 16 5 13 10 -4 5 -1 6 6 2
7 -5 10 -15 7 -23 -5 -11 -1 -13 16 -7 20 6 21 5 10 -9 -8 -9 -9 -18 -3 -21 5
-4 12 -2 16 4 4 6 11 5 21 -4 18 -19 18 -32 0 -17 -11 9 -16 9 -22 -1 -4 -7
-3 -10 1 -5 5 4 17 -1 28 -10 11 -10 17 -12 13 -5 -4 6 -2 12 3 12 6 0 11 -5
11 -11 0 -5 6 -7 13 -3 7 5 7 2 -2 -10 -8 -9 -10 -16 -5 -15 22 4 35 -2 28
-13 -5 -8 -2 -9 10 -5 12 5 20 -1 28 -18 6 -13 18 -27 26 -30 13 -5 13 -2 -2
14 -13 14 -14 21 -5 27 8 4 10 3 5 -5 -4 -6 0 -14 8 -17 9 -3 16 -16 16 -28 0
-17 2 -18 10 -6 8 12 10 12 10 -5 0 -17 2 -17 10 -5 7 11 10 11 10 2 0 -8 5
-10 13 -6 9 6 9 4 -1 -8 -11 -14 -11 -16 0 -14 7 1 18 5 24 9 7 4 10 -2 9 -17
-2 -18 1 -23 19 -21 29 4 60 -20 50 -37 -5 -9 -2 -8 11 2 15 12 17 12 10 1 -6
-10 -4 -13 6 -9 15 6 42 -16 32 -26 -4 -3 1 -6 11 -6 11 0 15 4 10 13 -5 8 -2
8 9 -2 9 -7 17 -21 17 -30 0 -14 2 -14 10 -1 6 10 10 11 10 3 0 -7 11 -15 25
-19 14 -3 23 -10 20 -14 -3 -5 -1 -11 4 -14 5 -4 13 -1 17 5 5 8 3 9 -6 4 -9
-5 -11 -4 -6 4 10 16 29 3 22 -16 -3 -8 -2 -11 3 -8 5 3 13 1 16 -5 5 -8 11
-8 19 -1 14 12 49 -22 38 -35 -4 -4 -1 -4 6 0 7 5 10 13 5 20 -4 7 1 2 12 -11
17 -19 23 -21 34 -11 11 11 12 10 6 -1 -6 -11 -4 -13 8 -8 13 5 17 1 18 -16 0
-21 1 -21 9 -2 l9 20 1 -20 1 -20 9 20 c6 14 9 16 10 5 2 -8 2 -18 2 -21 -1
-3 11 -4 25 -1 20 4 24 2 18 -9 -7 -11 -5 -11 10 1 17 13 18 13 13 -1 -5 -13
-1 -15 20 -11 21 4 24 2 19 -14 -7 -18 -6 -18 8 0 8 11 15 15 15 8 0 -6 10
-17 23 -23 20 -11 21 -11 8 5 -12 14 -12 16 2 10 8 -3 18 -12 21 -20 4 -10 11
-11 31 -4 19 7 25 6 25 -4 0 -19 20 -25 47 -15 17 6 25 4 32 -9 7 -12 10 -13
11 -3 0 8 8 4 19 -10 l20 -24 -6 25 c-5 25 -5 25 11 5 10 -11 15 -14 11 -8 -5
10 0 11 18 4 14 -6 28 -7 31 -4 3 4 6 1 6 -6 0 -7 4 -10 9 -7 5 4 12 0 14 -6
3 -7 6 -4 6 7 1 16 3 17 10 5 6 -8 7 -18 5 -22 -3 -4 -1 -8 4 -8 5 0 12 9 15
20 4 14 11 18 24 14 15 -5 15 -4 3 5 -8 6 -10 11 -5 11 6 0 3 5 -5 10 -10 6
-11 10 -2 10 6 0 12 8 12 18 0 15 2 15 11 2 9 -12 10 -12 5 3 -3 10 -6 21 -6
24 0 3 -6 2 -13 -3 -7 -5 -5 -2 5 8 13 12 15 18 6 21 -7 3 -4 6 7 6 16 1 17 3
5 10 -8 6 -18 7 -24 4 -5 -3 -6 -1 -2 6 4 6 11 9 16 6 5 -3 11 -1 15 5 3 5 2
10 -2 10 -5 0 -9 13 -8 29 0 24 2 27 14 18 12 -10 13 -9 7 2 -5 8 -3 17 5 23
11 7 9 8 -5 4 -18 -6 -18 -5 -1 20 15 23 15 26 2 21 -11 -4 -14 -2 -10 8 3 8
10 12 17 8 6 -3 6 -1 -1 8 -16 16 -17 29 -2 29 5 0 7 -6 3 -13 -4 -6 -3 -8 1
-4 12 10 15 38 4 31 -5 -3 -9 0 -9 5 0 6 4 11 10 11 5 0 7 7 4 15 -4 8 -11 12
-17 8 -6 -4 -7 -1 -3 6 5 7 13 10 20 8 7 -3 12 4 12 18 0 13 -4 21 -9 18 -5
-3 -7 0 -5 8 3 8 14 13 24 11 15 -2 14 0 -5 11 l-23 14 23 22 c14 13 17 20 8
16 -10 -4 -16 0 -16 9 0 8 4 13 8 10 4 -2 10 0 14 6 3 5 -2 10 -12 10 -11 0
-14 3 -7 8 6 4 10 16 8 26 -1 10 4 29 12 41 8 12 11 25 7 29 -13 12 -12 38 1
33 7 -3 13 1 13 9 0 8 -6 13 -14 10 -10 -4 -11 -1 -3 13 8 17 6 19 -15 16 -17
-1 -25 3 -25 14 0 14 -2 14 -10 1 -5 -8 -10 -10 -10 -4 0 6 -12 16 -27 23
l-28 12 25 -21 c23 -20 23 -20 2 -10 -12 6 -27 8 -32 5 -6 -4 -7 1 -3 12 5 15
3 16 -7 6 -10 -10 -17 -10 -28 -1 -14 12 -28 16 -64 20 -10 1 -20 8 -23 16 -3
8 0 10 7 6 7 -4 8 -3 4 5 -6 9 -11 9 -22 0 -17 -14 -19 2 -1 21 10 12 9 12 -4
2 -12 -9 -20 -9 -34 2 -11 8 -26 11 -34 8 -10 -4 -12 -1 -6 7 6 10 3 11 -12 3
-15 -9 -25 -5 -50 18 -24 22 -33 26 -43 17 -10 -9 -11 -9 -6 1 4 7 2 12 -6 12
-9 0 -9 3 2 10 8 5 10 10 4 10 -5 0 -16 -6 -23 -12 -11 -10 -13 -10 -7 0 7 11
-5 17 -27 13 -5 -1 -5 4 -1 10 4 8 0 9 -15 4 -13 -4 -21 -2 -21 5 0 6 5 8 10
5 6 -3 10 -1 10 6 0 7 -10 9 -24 7 -16 -3 -23 -1 -20 7 6 14 -40 40 -55 31 -7
-5 -8 -1 -4 10 5 14 3 16 -12 11 -22 -9 -46 9 -38 29 4 10 0 12 -11 8 -11 -4
-16 -1 -16 11 0 9 -5 13 -10 10 -5 -3 -10 -1 -10 4 0 6 -6 11 -14 11 -8 0 -18
5 -22 12 -5 7 -3 8 6 3 9 -6 11 -4 5 4 -4 7 -18 11 -31 8 -20 -3 -22 -2 -13
15 9 18 8 18 -10 9 -17 -10 -20 -9 -15 4 4 10 0 15 -10 15 -9 0 -16 7 -16 15
0 8 -5 15 -11 15 -5 0 -7 -5 -3 -12 4 -7 3 -8 -5 -4 -6 4 -9 12 -6 17 4 5 -1
9 -10 9 -9 0 -13 5 -10 10 4 6 11 7 17 4 7 -4 8 -2 4 4 -5 9 -13 9 -28 1 -11
-6 -18 -7 -14 -1 9 15 -60 86 -76 76 -7 -4 -10 -4 -6 1 4 4 2 15 -5 24 -11 14
-10 15 7 1 12 -9 17 -10 12 -2 -4 6 -20 19 -37 27 -18 10 -29 23 -29 36 0 11
-4 17 -10 14 -5 -3 -10 2 -10 12 0 15 -2 16 -11 3 -9 -12 -10 -11 -6 7 3 13
-1 24 -10 27 -9 4 -12 1 -8 -7 4 -6 0 -3 -9 8 -8 11 -20 26 -27 33 -6 7 -8 19
-5 27 3 8 2 14 -2 12 -4 -1 -18 6 -32 17 l-25 18 25 -6 c23 -5 23 -4 -2 6 -16
7 -28 16 -28 21 0 4 4 6 8 3 5 -3 9 1 9 8 0 8 -6 12 -13 9 -15 -5 -23 7 -26
40 -1 14 -6 23 -10 21 -5 -3 -6 -10 -3 -15 10 -15 -2 -10 -16 8 -10 11 -10 14
-1 9 7 -4 12 -1 12 9 0 9 -4 13 -10 10 -5 -3 -10 -1 -10 5 0 6 -6 8 -12 4 -10
-6 -10 -4 0 7 15 17 16 33 0 23 -8 -5 -9 -2 -4 11 5 15 4 16 -9 5 -13 -11 -16
-11 -13 1 2 8 8 17 13 21 6 4 0 8 -12 8 -13 0 -23 5 -23 11 0 5 4 8 9 5 14 -9
6 23 -9 37 -11 9 -11 8 0 -8 14 -19 14 -19 -3 -6 -10 8 -23 24 -28 35 -9 19
-9 19 4 4 8 -10 17 -15 20 -12 3 3 -5 17 -19 31 -28 28 -32 42 -6 22 15 -12
16 -12 5 2 -7 9 -10 18 -7 22 3 3 -3 10 -14 16 -11 6 -21 8 -24 6 -3 -3 -5 1
-5 9 0 8 6 12 15 9 12 -5 12 -2 3 15 -7 12 -14 22 -17 22 -3 0 -2 -4 1 -10 10
-16 -1 -11 -16 7 -10 11 -10 14 -1 9 7 -4 12 -1 12 9 0 10 -5 14 -12 9 -10 -6
-10 -4 -1 7 16 16 17 29 2 29 -5 0 -7 -4 -4 -10 10 -16 -1 -11 -16 7 -10 11
-10 14 -1 9 6 -4 12 -2 12 3 0 6 -5 11 -11 11 -8 0 -7 6 2 17 10 11 10 14 2 9
-9 -5 -13 1 -13 19 0 14 -4 24 -9 20 -5 -3 -12 -1 -15 4 -4 5 -1 13 5 17 8 5
9 3 4 -6 -5 -9 -4 -11 4 -6 8 5 7 13 -3 28 -8 11 -12 27 -9 36 4 10 2 13 -5 8
-6 -3 -13 -2 -16 3 -4 5 -1 13 5 17 8 5 9 3 4 -6 -5 -8 -4 -11 3 -7 12 8 10
32 -3 44 -4 5 -4 1 0 -7 7 -12 6 -13 -7 -3 -15 13 -18 56 -5 69 10 11 9 24 -4
24 -5 0 -7 -6 -3 -12 5 -9 3 -9 -9 1 -18 14 -13 36 6 25 7 -4 9 -4 5 1 -4 4
-3 14 3 21 7 8 7 14 -1 19 -6 4 -9 1 -8 -6 2 -6 -2 -13 -7 -15 -6 -3 -10 8 -9
23 1 16 3 28 4 28 1 0 3 13 5 30 3 21 2 26 -5 15 -8 -12 -10 -9 -10 13 0 15 6
27 13 28 6 1 1 5 -13 9 -16 5 -19 8 -8 9 11 1 15 6 12 16 -4 8 -9 13 -13 11
-4 -3 -7 8 -6 24 0 22 3 26 12 18 19 -15 16 -2 -4 17 -14 14 -14 18 -2 26 10
6 10 9 2 9 -7 0 -13 5 -13 11 0 5 5 7 10 4 6 -3 10 -1 10 4 0 6 -4 11 -9 11
-5 0 -12 7 -15 16 -5 14 -4 15 8 5 11 -9 14 -8 12 6 0 10 -5 21 -11 25 -6 5
-4 8 5 8 11 1 10 4 -5 17 -16 12 -16 14 -3 10 10 -3 20 -1 24 5 4 6 3 8 -4 4
-6 -3 -13 -2 -17 4 -3 5 0 10 7 10 11 0 10 2 0 9 -11 6 -10 10 4 15 9 3 14 9
11 13 -4 3 -1 13 6 21 9 13 9 14 0 8 -7 -4 -13 -2 -13 3 0 20 -2 26 -11 38 -7
7 -6 14 2 19 8 5 9 3 4 -6 -5 -9 -4 -11 4 -6 9 6 9 11 -1 24 -9 11 -10 14 -1
8 9 -5 12 1 9 24 -3 25 -1 28 11 19 11 -10 12 -9 7 5 -3 9 -10 16 -16 16 -5 0
-6 5 -3 10 5 8 12 7 23 -2 11 -9 10 -5 -4 17 -15 22 -16 28 -4 23 11 -4 15 2
16 24 1 19 -2 25 -7 16 -6 -9 -8 -6 -6 10 1 14 6 21 15 17 7 -2 11 -1 7 4 -3
5 -2 11 2 14 5 2 3 3 -3 1 -6 -1 -11 4 -11 11 0 8 3 13 6 12 3 -1 6 3 6 8 0 6
-4 9 -8 7 -5 -1 -6 2 -2 8 3 6 9 8 13 6 4 -2 12 2 19 9 9 10 9 15 1 17 -6 2
-12 12 -14 21 -1 9 2 15 7 11 5 -3 6 -10 3 -16 -4 -6 -2 -8 4 -4 11 7 9 36 -4
59 -6 9 -5 9 7 0 16 -13 18 -9 20 40 0 9 5 15 11 11 6 -4 6 2 -1 15 -10 18 -9
21 6 21 15 0 16 2 3 10 -10 6 -11 10 -2 10 6 0 12 7 12 16 0 9 -5 12 -12 8 -7
-4 -8 -3 -4 5 4 6 12 9 17 5 6 -3 9 1 7 9 -2 9 6 23 17 32 l20 17 -20 -6 c-17
-5 -18 -4 -5 7 14 11 19 23 24 54 1 7 6 16 11 20 4 4 5 2 0 -6 -5 -10 -4 -12
3 -7 9 5 9 13 1 27 -10 19 -9 20 11 9 13 -7 20 -8 16 -2 -3 6 -2 14 4 17 8 5
7 12 -2 23 -11 13 -11 14 1 7 11 -6 13 -4 8 9 -4 10 -3 15 3 11 6 -4 9 4 7 17
-1 17 3 22 15 20 12 -2 16 4 14 22 -3 26 26 62 41 53 5 -3 9 3 9 13 0 10 -5
16 -11 12 -5 -3 -4 2 4 11 7 9 18 14 25 10 6 -4 5 1 -3 10 -12 16 -12 17 5 10
17 -6 17 -5 5 10 -12 15 -12 17 2 12 8 -4 18 -1 23 6 5 8 3 10 -6 4 -9 -6 -11
-4 -6 4 5 7 14 10 22 7 8 -3 11 0 7 9 -3 8 -10 12 -17 8 -6 -4 -5 1 3 10 15
19 26 23 15 5 -5 -7 -3 -8 5 -4 7 5 10 14 7 22 -6 16 6 18 20 4 8 -8 10 -2 9
19 -1 22 3 32 17 37 10 3 26 23 35 45 8 22 18 38 20 35 3 -2 -1 -15 -7 -28
-11 -22 -11 -22 9 2 10 13 18 27 15 31 -2 4 5 9 15 12 15 3 18 11 14 28 -4 19
-2 21 6 9 9 -13 12 -13 23 -1 10 10 10 12 1 7 -7 -4 -13 -2 -13 3 0 10 14 15
33 12 5 -1 6 3 2 9 -3 5 -1 18 5 27 9 14 10 14 7 2 -3 -9 1 -16 8 -16 7 0 11
6 8 13 -3 7 2 23 11 36 18 26 21 17 5 -15 l-12 -22 20 20 c11 11 18 24 15 29
-3 5 5 7 16 4 12 -4 20 -3 17 2 -3 4 2 13 10 20 8 7 15 20 15 29 0 12 2 13 9
3 7 -11 10 -10 15 3 3 9 3 21 0 27 -4 6 1 6 13 -1 24 -12 37 -3 23 15 -8 9 -6
12 7 10 10 0 17 5 15 12 -2 10 2 10 17 2 17 -9 19 -7 16 10 -4 23 5 26 23 8 7
-7 12 -9 12 -6 0 4 -7 13 -15 22 -14 13 -13 15 4 13 11 0 17 -5 14 -11 -3 -5
-1 -6 5 -2 7 4 12 13 12 21 0 19 17 28 26 14 5 -8 3 -9 -6 -4 -9 5 -11 4 -6
-4 4 -6 12 -9 17 -5 5 3 6 10 3 16 -5 8 -1 9 11 4 16 -6 16 -4 4 11 -9 11 -10
14 -1 9 6 -4 12 -2 12 3 0 6 5 11 11 11 5 0 7 -6 3 -12 -5 -10 -3 -10 7 0 12
11 12 14 -1 23 -12 9 -12 10 3 5 10 -3 21 -6 23 -6 3 0 2 -5 -2 -12 -4 -7 -3
-8 5 -4 6 4 9 12 6 17 -6 9 35 30 46 23 4 -2 13 4 20 14 13 15 12 16 -3 4 -13
-11 -18 -11 -24 0 -4 7 -4 10 1 6 4 -4 15 -3 22 4 11 9 17 9 24 -3 6 -10 9
-11 9 -1 0 7 4 11 8 8 5 -3 9 1 9 9 0 8 -5 15 -10 15 -6 0 -8 3 -5 6 4 3 15 1
26 -5 15 -8 23 -7 31 3 6 7 8 17 4 22 -4 5 -2 4 6 -3 16 -13 44 -6 34 10 -4 6
2 8 15 5 12 -4 25 -1 29 4 3 6 1 8 -5 4 -6 -3 -13 -3 -16 2 -8 13 28 11 36 -2
5 -6 8 -1 8 12 0 12 5 22 11 22 5 0 8 -4 4 -9 -3 -5 -1 -13 5 -16 6 -4 9 -1 8
6 -2 7 6 15 17 17 11 2 26 11 33 20 10 13 12 13 13 1 0 -8 4 -6 9 6 5 11 9 14
9 7 1 -10 6 -10 21 -2 15 8 20 8 21 -2 0 -7 5 -2 10 11 8 19 12 21 24 11 12
-10 16 -9 21 4 6 16 8 15 27 -1 11 -10 17 -12 13 -5 -6 11 5 17 26 13 5 0 7 2
7 7 -4 24 2 42 13 36 7 -4 8 -3 4 4 -4 6 -12 9 -19 6 -9 -3 -13 5 -11 28 1 18
-2 38 -7 45 -7 7 -6 14 1 18 6 3 8 11 4 16 -3 5 -10 6 -16 3 -7 -4 -8 -2 -4 5
4 6 11 9 16 6 5 -3 12 0 16 6 4 8 3 9 -4 5 -7 -4 -12 -1 -12 8 0 9 5 16 12 16
6 0 8 3 5 6 -4 4 -13 1 -22 -6 -18 -15 -20 1 -3 18 8 8 8 12 1 12 -6 0 -14 7
-17 16 -6 15 -4 15 11 3 12 -10 15 -10 9 -1 -4 7 -2 20 6 30 12 15 11 16 -4 4
-11 -9 -18 -10 -23 -2 -3 5 -1 10 6 10 8 0 7 5 -2 17 -8 9 -13 24 -11 34 2 9
-2 21 -9 25 -8 4 -9 3 -5 -4 4 -7 2 -12 -3 -12 -6 0 -11 5 -11 12 0 9 -3 9
-11 1 -8 -8 -19 -9 -37 -2 -21 8 -23 7 -14 -4z m-308 -71 c0 -2 -6 -9 -14 -15
-11 -9 -16 -9 -22 0 -4 7 -3 9 4 5 6 -3 13 -2 17 4 6 10 15 14 15 6z m-370
-146 c0 -5 -5 -10 -11 -10 -5 0 -7 5 -4 10 3 6 8 10 11 10 2 0 4 -4 4 -10z
m805 -119 c3 -5 2 -12 -3 -15 -5 -3 -9 1 -9 9 0 17 3 19 12 6z m-1145 -77 c0
-8 -5 -12 -10 -9 -6 4 -8 11 -5 16 9 14 15 11 15 -7z m320 -378 c0 -2 -7 -9
-15 -16 -13 -11 -14 -10 -9 4 5 14 24 23 24 12z m-970 -265 c0 -5 -7 -12 -16
-15 -14 -5 -15 -4 -4 9 14 17 20 19 20 6z m-230 -425 c0 -2 -8 -10 -17 -17
-16 -13 -17 -12 -4 4 13 16 21 21 21 13z m585 -245 c3 -5 2 -12 -3 -15 -5 -3
-9 1 -9 9 0 17 3 19 12 6z m-790 -1179 c-8 -8 -25 10 -19 20 4 6 9 5 15 -3 4
-7 6 -15 4 -17z m35 -152 c0 -5 -5 -10 -11 -10 -5 0 -7 5 -4 10 3 6 8 10 11
10 2 0 4 -4 4 -10z m827 -86 c-3 -3 -12 -4 -19 -1 -8 3 -5 6 6 6 11 1 17 -2
13 -5z m427 -642 c3 -5 -1 -9 -9 -9 -8 0 -12 4 -9 9 3 4 7 8 9 8 2 0 6 -4 9
-8z m351 -281 c3 -5 0 -13 -6 -17 -7 -4 -9 -3 -5 4 3 5 0 13 -6 15 -9 4 -10 6
-1 6 6 1 14 -3 18 -8z m-938 -273 c-3 -8 -6 -5 -6 6 -1 11 2 17 5 13 3 -3 4
-12 1 -19z m1523 -72 c0 -3 -4 -8 -10 -11 -5 -3 -10 -1 -10 4 0 6 5 11 10 11
6 0 10 -2 10 -4z m-340 -602 c0 -8 -19 -13 -24 -6 -3 5 1 9 9 9 8 0 15 -2 15
-3z"/>
<path d="M2666 5218 c3 -5 10 -6 15 -3 13 9 11 12 -6 12 -8 0 -12 -4 -9 -9z"/>
<path d="M4866 5182 c-3 -5 1 -9 9 -9 8 0 12 4 9 9 -3 4 -7 8 -9 8 -2 0 -6 -4
-9 -8z"/>
<path d="M3530 4989 c0 -5 5 -7 10 -4 6 3 10 8 10 11 0 2 -4 4 -10 4 -5 0 -10
-5 -10 -11z"/>
<path d="M2799 4828 c-5 -16 -4 -46 2 -42 4 2 7 13 6 24 -1 17 -5 26 -8 18z"/>
<path d="M4500 4705 c0 -2 6 -8 13 -14 10 -8 14 -7 14 2 0 8 -6 14 -14 14 -7
0 -13 -1 -13 -2z"/>
<path d="M4540 4685 c-9 -11 -16 -13 -24 -5 -12 12 -56 14 -56 2 0 -5 -10 -13
-22 -18 -13 -6 -18 -9 -11 -7 7 1 15 -2 18 -8 4 -5 1 -8 -7 -7 -8 2 -13 -6
-12 -19 1 -13 -3 -20 -7 -17 -5 3 -9 0 -9 -5 0 -6 5 -11 11 -11 5 0 8 -4 4 -9
-3 -5 -1 -12 5 -16 6 -4 7 -11 4 -17 -4 -5 4 -4 17 3 22 11 23 11 10 -4 -12
-15 -11 -17 8 -17 11 0 21 -4 21 -10 0 -5 5 -10 11 -10 6 0 9 7 6 15 -5 11 -1
12 19 5 17 -7 23 -7 19 0 -3 6 -1 10 5 10 6 0 8 5 4 12 -4 6 -3 8 3 5 6 -4 13
3 16 14 3 12 10 18 16 14 7 -4 8 0 4 11 -4 12 -3 15 5 10 18 -11 14 0 -5 15
-14 12 -16 12 -8 0 5 -10 4 -12 -4 -7 -9 6 -9 11 0 22 9 11 9 14 0 14 -7 0 -9
5 -5 12 5 8 2 9 -9 5 -11 -4 -17 -1 -17 9 0 9 5 12 12 8 7 -4 8 -3 4 4 -9 15
-11 15 -26 -3z"/>
<path d="M3193 4505 c0 -8 4 -12 9 -9 5 3 6 10 3 15 -9 13 -12 11 -12 -6z"/>
<path d="M2210 4393 c0 -8 -4 -12 -9 -8 -5 3 -13 0 -17 -6 -4 -7 -3 -9 4 -5 6
3 13 2 17 -4 6 -9 -8 -15 -30 -11 -5 1 6 -13 25 -31 l35 -33 23 25 c13 14 21
20 18 14 -3 -7 0 -14 7 -17 8 -3 12 6 13 25 1 21 -1 26 -8 16 -7 -9 -8 -7 -5
10 3 12 1 20 -4 16 -5 -3 -9 1 -9 8 0 8 -12 14 -30 14 -20 1 -30 -3 -30 -13z
m41 -11 c-7 -2 -18 1 -23 6 -8 8 -4 9 13 5 13 -4 18 -8 10 -11z m-34 -38 c-3
-3 -12 -4 -19 -1 -8 3 -5 6 6 6 11 1 17 -2 13 -5z"/>
<path d="M2255 4309 c-4 -6 -4 -13 -1 -16 3 -4 6 -1 6 6 0 7 5 9 12 5 7 -4 8
-3 4 4 -9 15 -13 15 -21 1z"/>
<path d="M3076 4071 c-3 -5 1 -11 9 -14 9 -4 12 -1 8 9 -6 16 -10 17 -17 5z"/>
<path d="M3260 4020 c-9 -6 -10 -10 -3 -10 6 0 15 5 18 10 8 12 4 12 -15 0z"/>
<path d="M3210 3961 c0 -6 4 -13 10 -16 6 -3 7 1 4 9 -7 18 -14 21 -14 7z"/>
<path d="M2730 3920 c-8 -5 -12 -12 -9 -15 4 -3 12 1 19 10 14 17 11 19 -10 5z"/>
<path d="M1400 3881 c0 -6 4 -13 10 -16 6 -3 7 1 4 9 -7 18 -14 21 -14 7z"/>
<path d="M4159 3863 c-13 -17 -13 -17 6 -3 11 8 22 16 24 17 2 2 0 3 -6 3 -6
0 -17 -8 -24 -17z"/>
<path d="M1757 3816 c5 -14 3 -17 -6 -11 -10 6 -11 2 -6 -15 5 -16 4 -20 -5
-15 -9 6 -9 2 0 -15 8 -15 8 -20 1 -16 -6 4 -11 2 -11 -3 0 -6 5 -11 10 -11
15 0 12 -30 -2 -31 -7 0 -4 -4 7 -9 11 -5 15 -9 9 -9 -7 -1 -14 -8 -18 -16 -3
-8 -2 -14 2 -14 20 3 32 -2 27 -11 -4 -6 -11 -8 -16 -5 -5 3 -6 -1 -3 -9 3 -9
11 -13 18 -9 6 3 6 1 -1 -8 -18 -19 -16 -32 5 -25 15 5 15 4 2 -7 -19 -16 -24
-38 -6 -31 10 4 13 -3 10 -22 -1 -15 1 -35 6 -44 6 -11 5 -21 -3 -29 -9 -10
-8 -14 6 -22 9 -6 15 -14 12 -20 -4 -5 0 -9 7 -9 8 0 9 -3 3 -8 -5 -4 -11 -11
-12 -17 -1 -5 -5 -18 -8 -27 -4 -11 -3 -18 5 -18 6 0 8 5 5 10 -3 6 -1 10 5
10 7 0 9 -7 6 -16 -3 -8 -1 -25 5 -37 12 -22 12 -22 -9 -3 -21 18 -21 18 -9
-7 6 -14 15 -23 19 -21 3 2 10 -1 14 -7 4 -8 3 -9 -4 -5 -7 4 -12 1 -12 -8 0
-9 4 -16 9 -16 5 0 9 -11 9 -25 0 -13 -5 -22 -10 -19 -5 3 -4 -3 3 -14 7 -12
16 -19 19 -17 4 2 7 -2 7 -10 0 -8 -5 -11 -11 -8 -6 4 -5 -1 3 -10 11 -13 11
-17 1 -17 -8 0 -10 -3 -6 -7 4 -5 13 -8 19 -8 15 0 17 -35 3 -54 -8 -11 -8
-13 0 -8 7 4 15 -1 19 -11 13 -29 14 -42 2 -42 -8 0 -8 -3 -2 -8 17 -12 51
-56 38 -48 -7 4 -13 3 -13 -1 0 -5 6 -15 13 -22 10 -11 9 -13 -3 -7 -9 5 -8 2
3 -7 9 -8 17 -24 17 -36 0 -11 5 -21 11 -21 5 0 7 5 3 12 -4 7 -3 8 4 4 13 -8
5 -36 -10 -36 -5 0 -6 -4 -3 -10 3 -5 11 -10 16 -10 6 0 7 5 4 10 -3 6 -1 10
6 10 6 0 9 -8 6 -20 -5 -18 3 -25 26 -21 4 1 0 -11 -10 -26 -10 -17 -11 -23
-3 -15 21 18 35 15 19 -5 -12 -15 -12 -16 3 -10 10 3 20 1 24 -5 4 -7 3 -8 -4
-4 -7 4 -12 2 -12 -3 0 -6 6 -11 14 -11 16 0 31 -34 22 -48 -3 -5 1 -9 9 -9 8
0 11 5 8 10 -3 6 -1 7 5 3 6 -4 9 -13 6 -20 -6 -15 21 -40 35 -32 5 4 13 1 17
-5 4 -8 3 -9 -4 -5 -17 10 -15 -3 2 -20 18 -17 30 -18 20 -1 -5 8 -2 8 9 -2
18 -15 23 -26 7 -16 -5 3 -10 1 -10 -4 0 -6 10 -11 21 -11 17 0 19 -3 10 -14
-9 -11 -7 -12 13 -9 13 3 27 -1 31 -8 6 -8 4 -10 -6 -4 -12 8 -12 6 0 -8 15
-18 26 -23 16 -7 -3 6 -2 10 3 10 6 0 13 -7 16 -16 3 -9 12 -14 19 -11 11 4
39 -16 34 -25 -1 -2 4 3 11 11 10 13 12 13 13 0 1 -8 1 -17 0 -21 0 -4 7 -4
16 -1 12 5 14 3 8 -7 -6 -10 -4 -12 8 -7 9 3 21 -1 29 -11 7 -8 8 -13 2 -9 -6
3 -11 0 -11 -8 0 -10 5 -11 19 -4 12 6 18 6 18 -1 0 -5 -5 -10 -12 -10 -6 0
-2 -9 10 -20 24 -22 29 -36 10 -24 -6 4 -8 3 -4 -4 3 -5 3 -12 -1 -15 -5 -2
-2 -2 5 0 25 6 34 -9 15 -24 -10 -8 -13 -12 -8 -9 19 9 34 -9 37 -43 2 -23 8
-36 21 -39 12 -3 17 -11 14 -23 -5 -20 18 -52 47 -62 15 -6 16 -10 5 -23 -7
-8 -8 -14 -3 -13 23 4 34 -3 34 -21 0 -14 7 -20 21 -20 14 0 19 -5 16 -14 -3
-8 1 -20 9 -26 8 -7 14 -10 14 -6 0 3 9 -3 20 -14 12 -12 18 -26 14 -32 -4 -7
-3 -8 4 -4 7 4 20 2 29 -3 10 -6 14 -11 8 -11 -5 -1 4 -7 20 -15 26 -13 27
-14 5 -9 -21 4 -22 3 -7 -6 10 -6 14 -16 10 -23 -4 -7 1 -6 10 2 10 8 20 11
24 7 3 -3 1 -6 -5 -6 -7 0 -12 -9 -12 -20 0 -11 5 -20 10 -20 6 0 10 -5 10
-11 0 -5 -5 -7 -10 -4 -16 10 -7 -18 10 -33 13 -12 12 -13 -5 -8 -19 6 -18 5
2 -13 l22 -18 -22 -12 c-19 -10 -19 -11 -2 -6 l20 5 -20 -16 c-20 -16 -20 -16
1 -10 18 6 20 2 20 -33 0 -22 -4 -37 -8 -35 -4 3 -8 0 -8 -5 0 -6 6 -11 13
-11 8 0 7 -4 -3 -10 -13 -8 -13 -10 -1 -10 11 0 9 -4 -5 -15 -11 -9 -13 -13
-4 -10 11 4 16 -3 16 -25 1 -16 -3 -30 -10 -30 -6 0 -4 -4 4 -9 8 -6 18 -7 24
-4 5 3 6 1 2 -5 -4 -7 -14 -12 -22 -12 -13 0 -13 -3 2 -17 17 -17 17 -18 0
-21 -16 -4 -16 -5 1 -18 17 -13 17 -14 -2 -7 -18 6 -18 5 -6 -10 12 -15 12
-17 -3 -11 -9 3 -16 10 -16 15 0 5 -6 9 -14 9 -8 0 -16 3 -19 8 -2 4 -2 1 -1
-5 2 -7 -1 -13 -6 -13 -6 0 -10 7 -10 15 0 8 -4 15 -10 15 -19 0 -25 3 -38 19
-8 9 -11 11 -8 4 4 -6 1 -15 -5 -19 -7 -4 -9 -3 -5 4 3 6 -3 13 -14 17 -11 3
-20 13 -20 22 0 13 -3 13 -17 2 -10 -7 -15 -10 -11 -5 4 5 -7 22 -25 39 -30
28 -31 29 -7 22 l25 -7 -24 18 c-23 17 -23 18 -5 32 18 14 18 14 0 8 -15 -5
-17 -2 -13 14 3 13 0 23 -9 27 -8 3 -14 18 -14 34 0 16 -5 29 -11 29 -8 0 -8
4 0 14 10 12 8 13 -11 9 -22 -5 -22 -5 -4 9 15 12 16 17 6 23 -9 5 -11 4 -6
-3 4 -7 2 -12 -5 -12 -6 0 -9 8 -6 19 3 13 1 18 -9 14 -8 -3 -21 11 -34 37
-12 23 -17 40 -12 36 5 -3 9 1 9 8 0 7 -7 13 -15 12 -8 0 -17 5 -20 13 -3 9 0
11 8 6 8 -5 11 -4 6 3 -4 6 -13 9 -21 5 -9 -3 -15 1 -15 11 0 9 -5 16 -11 16
-5 0 -7 -4 -4 -10 3 -6 -1 -7 -10 -3 -9 3 -13 9 -8 12 5 3 13 15 17 25 7 19 6
19 -13 2 -19 -17 -19 -17 -14 5 4 15 3 20 -5 15 -7 -4 -12 -2 -12 4 0 6 -5 8
-12 4 -8 -5 -9 -2 -5 9 4 11 1 17 -9 17 -8 0 -13 4 -10 9 4 5 -7 15 -23 22
-16 7 -27 17 -25 21 3 4 0 8 -6 8 -6 0 -8 5 -4 13 5 7 0 6 -11 -3 -11 -9 -16
-10 -11 -2 4 7 1 12 -8 12 -9 0 -16 5 -16 11 0 5 5 7 12 3 7 -4 8 -3 4 5 -4 6
-11 9 -16 6 -14 -9 -51 13 -87 51 -33 34 -57 48 -33 19 11 -13 10 -14 -4 -9
-13 5 -16 13 -11 33 6 25 6 25 -9 6 -15 -19 -15 -19 -16 -1 0 13 -5 17 -20 13
-13 -3 -20 0 -20 9 0 8 -5 14 -11 14 -5 0 -7 6 -3 13 5 8 2 8 -9 -2 -12 -9
-17 -10 -17 -2 0 7 -4 10 -9 6 -5 -3 -12 -1 -16 5 -4 6 -11 7 -17 4 -7 -4 -8
-2 -4 5 6 9 11 9 21 1 10 -8 15 -8 21 2 4 7 3 10 -1 5 -5 -4 -17 1 -28 10 -11
10 -17 12 -13 6 4 -7 2 -13 -3 -13 -6 0 -11 5 -11 11 0 6 -7 9 -14 6 -10 -4
-13 -1 -10 7 3 7 -2 16 -10 19 -11 4 -13 1 -10 -11 3 -9 -1 -7 -8 6 -11 18
-16 20 -27 10 -11 -10 -12 -10 -7 0 4 6 2 12 -5 12 -6 0 -18 8 -26 18 -8 9
-12 12 -9 6 3 -6 -1 -11 -8 -11 -8 0 -12 7 -8 15 3 10 1 13 -5 9 -6 -4 -19 0
-27 9 -9 9 -16 11 -16 4 0 -7 -6 -5 -16 4 -23 24 -31 20 -31 -19 0 -19 4 -35
9 -35 5 0 7 -4 3 -9 -3 -5 1 -16 8 -23 11 -11 11 -16 2 -25 -7 -7 -16 -9 -21
-5 -4 4 -4 1 0 -6 5 -9 12 -9 28 -1 13 7 18 7 14 1 -3 -6 -2 -14 4 -17 8 -5 8
-11 0 -20 -8 -10 -6 -15 10 -20 21 -7 21 -7 3 -22 -15 -12 -15 -14 -2 -10 13
4 16 -1 14 -29 -2 -29 0 -32 13 -21 13 11 14 9 2 -13 -12 -22 -12 -24 3 -12
13 11 15 10 10 -9 -5 -17 -3 -20 8 -14 12 8 12 6 0 -8 -9 -11 -10 -17 -2 -17
6 0 11 -7 11 -16 0 -9 -5 -12 -12 -8 -7 4 -8 3 -4 -5 6 -8 12 -9 20 -2 13 11
14 8 19 -43 1 -13 5 -22 9 -20 4 2 9 0 13 -6 3 -5 -2 -10 -12 -11 -16 0 -16
-1 2 -8 11 -5 24 -6 28 -4 5 3 4 -4 -2 -16 -9 -17 -9 -21 2 -21 8 0 21 -8 28
-17 10 -11 10 -14 2 -9 -7 4 -13 2 -13 -3 0 -6 5 -11 10 -11 6 0 10 -5 10 -11
0 -5 -6 -7 -12 -3 -9 5 -9 2 1 -9 7 -9 20 -17 28 -17 13 0 13 -3 3 -15 -7 -9
-10 -18 -6 -22 3 -3 6 -1 6 5 0 22 16 12 17 -10 1 -12 9 -26 18 -30 8 -5 13
-14 9 -19 -3 -6 2 -9 12 -7 16 2 19 -3 18 -32 -1 -19 1 -29 3 -22 3 6 9 12 14
12 6 0 7 -4 4 -10 -3 -5 1 -10 9 -10 10 0 13 -7 11 -21 -4 -18 -2 -19 11 -8 8
7 14 8 13 3 -4 -24 2 -36 17 -30 14 6 15 4 4 -9 -7 -9 -9 -15 -4 -14 14 3 44
-12 44 -23 0 -5 12 -21 27 -36 15 -15 21 -20 14 -10 -9 13 -9 18 0 24 8 4 9 3
5 -4 -4 -7 -2 -12 3 -12 6 0 11 -7 11 -16 0 -12 6 -15 21 -11 17 5 18 3 7 -11
-10 -12 -10 -14 0 -8 6 4 12 3 12 -2 0 -6 8 -13 18 -17 14 -5 15 -4 5 6 -7 7
-13 18 -13 23 0 6 10 -4 21 -21 18 -29 23 -31 42 -21 21 10 21 10 7 -7 -14
-17 -14 -18 8 -6 14 7 22 8 22 1 0 -5 7 -10 16 -10 8 0 13 -3 11 -8 -3 -4 8
-7 23 -7 16 -1 27 2 25 5 -2 3 10 5 26 6 25 1 27 -1 17 -14 -12 -14 -10 -14
12 -2 33 18 60 22 60 9 0 -5 -4 -7 -10 -4 -16 10 -11 -1 7 -16 9 -8 14 -9 10
-3 -4 7 0 17 8 24 13 11 14 10 9 -5 -5 -13 -4 -16 4 -11 7 4 12 2 12 -6 0 -9
3 -9 10 2 8 13 10 12 10 -3 0 -10 4 -16 9 -13 5 4 12 0 14 -6 4 -10 8 -9 16 2
6 8 11 10 11 4 0 -5 -4 -14 -10 -20 -6 -6 -3 -10 10 -11 13 -1 18 3 14 10 -3
7 3 3 13 -9 10 -12 26 -24 36 -27 11 -4 15 -12 11 -19 -6 -10 -4 -10 8 0 13
10 18 10 24 1 5 -8 3 -9 -6 -4 -9 5 -11 4 -6 -3 5 -9 13 -9 27 -2 10 6 19 7
18 3 -1 -4 -1 -17 1 -28 l1 -20 9 20 c6 14 9 16 10 5 2 -8 2 -19 1 -24 -1 -5
4 -4 12 2 11 10 17 9 28 -5 9 -11 10 -14 2 -9 -7 4 -13 2 -13 -3 0 -6 5 -11
12 -11 6 0 4 -6 -7 -13 -13 -10 -15 -16 -6 -21 6 -4 8 -12 5 -18 -4 -7 -2 -8
4 -4 18 11 14 -5 -5 -19 -13 -9 -13 -14 -3 -20 9 -5 11 -4 6 3 -10 17 -1 15
14 -4 11 -12 11 -15 1 -12 -8 2 -15 -5 -16 -14 -2 -10 0 -18 4 -18 4 0 8 -7 8
-15 0 -8 -4 -12 -9 -9 -4 3 -8 0 -8 -5 0 -6 5 -11 10 -11 6 0 10 -5 10 -11 0
-5 -5 -7 -11 -3 -7 4 -10 1 -7 -7 3 -8 11 -13 17 -11 7 1 10 -2 6 -8 -3 -6
-11 -8 -16 -5 -16 11 -10 -7 9 -21 16 -13 16 -14 -3 -7 -18 6 -19 5 -5 -12 9
-11 10 -16 3 -11 -7 4 -13 2 -13 -3 0 -6 6 -11 13 -11 8 0 7 -4 -3 -10 -13 -9
-13 -10 0 -10 12 0 13 -2 1 -9 -11 -7 -10 -10 4 -18 12 -7 14 -13 6 -17 -6 -4
-11 -2 -11 5 0 7 -3 9 -6 6 -4 -4 -1 -14 7 -24 12 -15 12 -16 -3 -10 -13 4
-15 2 -11 -10 5 -12 3 -14 -7 -8 -8 5 -11 4 -6 -3 4 -6 12 -10 19 -8 7 1 9 1
4 -1 -4 -3 -4 -10 -1 -15 4 -7 2 -8 -4 -4 -14 9 -15 5 -3 -26 10 -26 9 -44 -1
-40 -8 2 -9 -3 -12 -43 0 -11 -5 -26 -9 -32 -5 -9 -3 -11 5 -8 9 4 14 -2 14
-14 0 -16 -3 -18 -15 -8 -12 10 -13 9 -1 -12 11 -22 10 -23 -5 -17 -15 5 -16
4 -5 -9 7 -8 17 -12 23 -8 6 4 7 1 3 -6 -5 -7 -13 -10 -20 -8 -6 3 -12 -4 -12
-14 0 -11 3 -19 6 -19 4 0 7 -7 7 -15 0 -8 -6 -15 -14 -15 -7 0 -13 -4 -13
-10 0 -5 8 -7 18 -3 14 5 15 3 5 -8 -7 -7 -13 -21 -13 -30 0 -10 -6 -20 -12
-22 -10 -4 -10 -6 0 -6 6 -1 12 -6 12 -12 0 -5 -4 -8 -9 -4 -5 3 -13 0 -17 -6
-4 -7 -3 -9 4 -5 6 3 13 2 17 -4 3 -6 -4 -10 -17 -10 -20 -1 -21 -2 -5 -11 19
-11 23 -29 6 -29 -5 0 -7 5 -3 12 4 7 3 8 -5 4 -9 -6 -9 -11 1 -24 11 -14 10
-15 -7 -8 -15 5 -17 4 -8 -5 9 -9 8 -15 -3 -26 -12 -13 -12 -17 1 -36 18 -26
20 -48 2 -23 -12 16 -13 16 -13 -3 0 -12 3 -21 6 -21 11 0 9 -45 -3 -52 -7 -5
0 -7 15 -4 15 3 27 2 27 -2 -3 -20 3 -32 15 -32 8 0 16 -7 20 -15 5 -13 2 -13
-19 1 -14 9 -25 20 -25 25 0 5 -6 9 -12 9 -7 0 -1 -11 14 -24 15 -13 24 -26
21 -30 -3 -3 7 -3 22 0 18 3 31 -1 40 -12 9 -13 14 -14 20 -4 6 9 4 11 -5 5
-9 -6 -11 -4 -5 5 6 10 11 9 21 -4 9 -13 13 -14 17 -4 4 10 6 10 6 -1 1 -11 4
-11 18 0 14 12 16 12 11 -2 -4 -10 -1 -16 8 -16 8 0 14 5 14 11 0 5 7 1 15
-10 11 -14 14 -15 9 -3 -3 10 0 20 7 25 7 4 10 3 6 -2 -3 -6 -2 -16 4 -24 7
-12 9 -11 9 5 0 14 3 16 11 8 6 -6 18 -9 25 -6 8 3 21 0 29 -7 13 -11 14 -10
9 5 -7 16 -5 16 26 0 18 -9 30 -12 26 -7 -3 5 2 16 11 23 20 17 16 17 38 -1
12 -9 16 -10 11 -2 -6 9 -1 11 18 8 18 -3 23 -1 19 10 -3 8 0 14 6 14 6 0 11
-4 11 -10 0 -5 5 -10 11 -10 5 0 7 4 4 10 -5 9 6 14 26 12 3 0 11 8 18 20 7
11 8 17 2 13 -6 -3 -11 1 -11 10 0 10 5 13 12 9 7 -5 9 0 6 14 -4 16 -2 19 10
15 10 -4 13 -2 8 6 -4 6 -3 18 3 25 8 9 7 13 -4 13 -8 0 -11 -5 -8 -10 4 -6 1
-7 -7 -2 -11 7 -10 10 1 19 8 6 13 18 13 26 -1 8 -2 21 -3 28 0 6 -6 12 -12
12 -8 0 -7 -6 2 -17 13 -16 12 -17 -3 -4 -10 7 -15 17 -12 22 3 5 2 14 -2 21
-9 15 -12 58 -3 53 3 -2 6 2 6 10 0 8 -4 12 -9 9 -4 -3 -8 0 -8 6 0 6 -5 8
-12 4 -9 -6 -9 -3 0 9 8 9 10 22 6 28 -4 8 -3 9 4 5 7 -4 12 -2 12 3 0 6 -7
11 -15 11 -8 0 -15 7 -15 16 0 8 4 13 8 10 5 -3 7 5 6 17 -1 12 -3 22 -4 22
-1 0 -4 9 -6 20 -3 11 -6 27 -8 35 -2 8 -9 14 -16 12 -6 -1 -9 2 -5 8 3 6 10
8 15 5 5 -3 12 -1 15 5 4 6 3 10 -2 9 -20 -4 -24 2 -12 18 10 11 10 14 1 9 -6
-4 -12 -4 -13 1 0 4 -2 16 -4 25 -2 11 2 15 12 11 13 -5 13 -3 1 16 -11 18
-11 23 2 32 11 8 9 9 -10 3 -20 -6 -23 -4 -14 7 18 23 25 51 11 44 -6 -4 -3 0
7 9 10 8 23 13 29 9 6 -3 7 -1 3 6 -4 6 -12 8 -18 5 -6 -4 -5 2 1 15 7 12 9
26 6 31 -4 6 -1 9 6 8 7 -2 13 2 14 9 0 7 9 19 20 28 11 9 13 14 5 10 -8 -4
-4 2 9 13 18 14 21 21 11 27 -9 6 -11 4 -5 -5 5 -9 4 -11 -4 -6 -6 4 -9 12 -5
17 3 5 9 7 13 5 4 -3 13 -1 21 5 12 7 12 9 -4 9 -12 0 -16 5 -12 16 3 9 6 18
6 20 0 3 6 2 13 -2 7 -5 6 0 -3 11 -13 17 -13 18 1 13 13 -5 16 0 14 24 -2 18
3 32 11 35 8 3 14 9 14 15 0 5 -6 6 -12 2 -9 -5 -8 -2 1 10 11 13 16 14 22 4
5 -7 9 -9 9 -4 0 5 -8 18 -17 28 -16 18 -16 18 2 12 14 -6 16 -4 10 6 -6 10
-4 12 7 7 12 -4 14 -1 10 15 -3 13 1 24 12 30 13 7 14 13 5 30 -9 16 -8 19 2
13 9 -6 11 -3 6 8 -4 10 1 22 13 30 11 8 17 17 12 22 -4 4 4 2 17 -5 15 -8 21
-8 17 -1 -4 6 0 12 8 12 30 3 34 4 43 13 5 5 3 6 -5 2 -6 -4 -12 -2 -12 3 0
10 17 15 48 14 6 -1 12 8 12 18 0 21 11 24 27 8 8 -8 13 -7 18 2 5 8 4 10 -3
5 -18 -11 -14 10 5 25 10 8 14 9 10 2 -4 -6 -3 -14 2 -17 5 -4 8 4 7 17 -2 18
2 23 18 23 11 -1 25 9 32 22 6 13 14 23 18 22 4 -1 10 0 14 3 4 2 1 2 -5 1 -7
-2 -13 1 -13 6 0 6 5 10 11 10 5 0 7 5 3 12 -5 7 -3 8 5 3 7 -4 20 1 31 13 14
15 16 22 7 26 -7 4 -1 4 12 2 17 -4 21 -2 13 6 -13 13 -4 40 11 31 7 -4 8 0 3
12 -5 14 -4 16 7 7 11 -9 13 -7 13 11 -1 17 4 21 19 19 l20 -4 -20 16 c-11 9
-15 16 -10 15 23 -3 29 2 15 12 -12 9 -11 10 6 6 13 -3 21 1 21 9 0 7 -4 11
-8 8 -4 -2 -11 0 -14 6 -4 6 -3 10 2 9 18 -3 47 3 36 8 -18 7 -16 23 2 23 8 0
15 5 15 11 0 5 -4 7 -10 4 -5 -3 -10 1 -10 9 0 10 7 13 21 11 20 -4 21 -3 5
14 -15 17 -15 19 1 32 16 13 17 12 4 -3 -8 -11 -9 -18 -3 -18 12 0 27 38 23
59 -1 8 2 10 11 5 11 -6 11 -5 0 8 -9 11 -10 18 -2 23 6 3 8 10 5 15 -3 5 0
12 6 15 5 4 8 13 5 21 -3 8 0 11 9 7 8 -3 12 -10 8 -16 -3 -6 -1 -7 6 -3 7 5
9 12 3 19 -14 19 -11 49 5 43 8 -3 12 -2 8 3 -3 5 -2 11 2 14 5 2 3 3 -4 1
-12 -3 -12 21 2 33 4 4 5 2 0 -6 -6 -10 -4 -12 4 -7 9 6 9 11 -1 24 -11 13
-10 15 5 9 9 -3 17 -2 17 3 0 6 -6 10 -12 10 -9 0 -9 3 1 9 15 10 23 32 22 64
0 9 4 15 8 13 4 -3 8 1 8 9 0 8 -3 12 -7 10 -4 -2 -7 2 -7 10 0 8 4 12 9 9 4
-3 8 -1 8 5 0 5 -6 12 -12 14 -10 4 -10 6 0 6 8 1 10 6 6 14 -6 9 -5 9 7 0 12
-10 15 -8 15 8 0 13 -5 18 -15 14 -11 -4 -12 -3 -1 10 7 8 16 13 20 10 5 -3
12 0 16 6 4 7 3 10 -2 6 -5 -3 -14 5 -21 19 -9 19 -8 26 6 36 14 12 15 11 2
-4 -9 -12 -10 -18 -2 -18 6 0 11 5 11 11 0 5 6 7 13 3 6 -4 3 3 -8 16 -11 13
-15 20 -8 17 15 -9 22 13 12 40 -5 14 -4 25 3 29 7 5 8 3 3 -6 -6 -9 -4 -11 4
-6 7 5 10 11 7 14 -3 3 -1 11 6 19 8 10 8 12 -4 8 -11 -4 -14 1 -13 17 1 15 8
22 19 22 15 -2 16 0 3 15 -8 9 -13 24 -12 34 3 18 3 18 -16 1 -10 -9 -19 -13
-19 -8 0 5 -12 -4 -26 -19 -14 -15 -29 -25 -34 -22 -12 7 -32 -30 -22 -41 4
-5 0 -3 -8 3 -11 9 -20 8 -34 -3 -11 -8 -15 -14 -10 -14 6 0 15 5 22 12 9 9
12 9 12 1 0 -7 -9 -15 -20 -18 -11 -3 -20 -11 -20 -16 0 -6 -5 -7 -10 -4 -6 4
-7 11 -4 17 4 6 3 8 -3 5 -6 -4 -9 -18 -8 -32 3 -21 0 -23 -14 -16 -11 6 -22
6 -32 -1 -12 -8 -12 -9 2 -5 9 3 16 -1 16 -8 0 -14 -14 -14 -35 -1 -11 7 -12
4 -3 -13 7 -11 10 -21 9 -22 -2 0 -14 -2 -26 -3 -25 -3 -44 -24 -36 -38 3 -4
-2 -5 -10 -2 -9 3 -19 -5 -28 -23 -10 -20 -21 -28 -40 -28 -22 1 -25 -2 -17
-17 7 -14 5 -16 -12 -13 -17 4 -19 2 -8 -11 10 -12 9 -13 -6 -7 -15 5 -17 3
-12 -10 5 -15 3 -16 -12 -7 -16 8 -18 7 -13 -12 4 -15 2 -19 -7 -14 -8 5 -14
0 -18 -14 -4 -16 -8 -18 -14 -8 -7 10 -9 9 -9 -5 0 -12 -4 -16 -12 -11 -8 5
-7 0 2 -11 14 -17 13 -18 -2 -12 -12 4 -15 2 -11 -9 4 -10 0 -12 -13 -7 -17 6
-17 5 -5 -10 12 -15 12 -17 -3 -11 -11 4 -16 2 -14 -7 2 -8 -3 -13 -11 -11 -9
2 -11 -3 -7 -13 4 -11 -2 -19 -19 -25 -18 -7 -23 -14 -18 -26 4 -12 3 -15 -5
-10 -8 5 -10 1 -5 -10 5 -14 3 -16 -12 -11 -15 6 -16 5 -5 -8 10 -13 9 -15 -9
-15 -13 0 -19 -4 -16 -10 4 -6 11 -7 17 -4 7 4 8 2 4 -5 -4 -6 -11 -9 -15 -7
-4 3 -17 -8 -29 -23 -16 -22 -18 -31 -9 -41 9 -10 9 -11 0 -6 -9 5 -13 -1 -13
-19 0 -15 -4 -24 -10 -20 -5 3 -10 2 -10 -4 0 -5 6 -12 13 -14 6 -3 2 -6 -10
-6 -13 -1 -23 -6 -23 -12 0 -5 4 -8 9 -4 5 3 13 1 16 -5 4 -6 1 -9 -7 -8 -8 2
-13 -6 -12 -18 0 -13 -5 -20 -11 -18 -6 3 -12 -2 -12 -10 0 -8 3 -13 7 -11 13
8 0 -49 -21 -87 -5 -10 -5 -19 1 -23 5 -3 7 -12 4 -20 -4 -8 -11 -12 -17 -8
-6 4 -7 1 -2 -7 4 -7 2 -16 -6 -21 -11 -7 -11 -9 -1 -9 7 0 10 -5 6 -12 -4 -6
-3 -8 3 -5 7 5 10 -5 8 -27 -2 -19 3 -46 10 -60 8 -15 10 -24 5 -21 -6 4 -10
2 -10 -4 0 -5 5 -11 12 -13 6 -2 12 -12 14 -22 1 -11 -2 -16 -10 -13 -7 3 -13
-1 -13 -9 0 -9 7 -13 16 -9 14 4 14 4 1 -7 -9 -7 -16 -22 -15 -33 0 -13 -7
-20 -18 -19 -10 1 -14 -3 -10 -9 15 -25 10 -44 -11 -40 -12 3 -17 1 -11 -4 18
-15 17 -36 -1 -29 -14 6 -15 4 -4 -9 11 -13 11 -16 0 -13 -7 2 -15 -3 -18 -11
-3 -10 0 -11 9 -5 11 6 12 5 2 -8 -7 -8 -10 -18 -7 -21 3 -3 -1 -16 -10 -29
-9 -12 -16 -17 -16 -10 0 7 -4 11 -8 8 -4 -2 -9 5 -10 17 -1 12 -4 31 -6 42
-2 11 2 26 8 34 8 11 8 13 -1 8 -6 -4 -14 -3 -17 2 -4 5 -2 12 3 15 11 7 9 25
-4 46 -8 13 -7 13 8 1 11 -9 17 -10 17 -2 0 6 0 13 0 16 0 3 -3 5 -6 4 -10 -1
-23 24 -18 33 3 4 11 8 17 8 7 0 6 -4 -3 -10 -9 -6 -10 -10 -3 -10 18 0 26 19
10 26 -9 3 -12 14 -9 31 4 20 2 24 -8 18 -9 -5 -11 -4 -6 4 4 6 12 8 18 5 6
-4 8 -2 4 4 -3 5 -3 12 1 15 5 2 2 2 -4 1 -17 -4 -16 6 3 27 12 13 12 19 3 25
-7 4 -10 3 -5 -4 3 -6 2 -13 -2 -16 -5 -3 -8 16 -6 41 1 26 -2 56 -8 66 -7 14
-7 17 1 12 8 -4 10 5 7 32 -3 26 1 44 12 57 10 11 11 16 5 12 -8 -4 -13 -1
-13 9 0 10 -5 13 -12 9 -7 -4 -2 5 11 19 14 15 21 30 17 34 -4 4 -11 1 -16 -7
-7 -11 -10 -11 -10 -2 0 7 7 15 15 18 14 6 13 8 -2 21 -10 8 -12 12 -5 8 22
-11 37 7 17 22 -11 7 -13 13 -6 13 7 0 9 5 5 13 -6 9 -5 9 7 0 12 -10 15 -8
15 7 0 10 -4 17 -8 14 -4 -2 -6 5 -5 16 1 13 6 19 15 15 7 -3 10 0 7 6 -4 5
-1 17 7 26 8 11 8 14 1 10 -8 -5 -11 0 -10 13 1 12 6 19 14 16 7 -3 13 -1 13
4 0 6 -8 10 -17 11 -15 0 -15 2 2 9 11 5 16 9 11 9 -5 1 -3 8 4 16 10 12 10
18 1 29 -10 12 -8 14 11 10 13 -2 17 -2 11 2 -7 3 -13 15 -13 25 0 11 4 18 8
15 5 -3 9 1 9 9 0 8 -5 13 -10 12 -5 -1 -12 4 -15 12 -3 8 0 11 7 7 7 -5 9 -1
5 9 -4 10 -14 14 -28 10 -11 -2 -15 -2 -8 1 6 3 12 10 12 15 0 6 -4 7 -10 4
-5 -3 -10 -1 -10 4 0 6 5 11 12 11 6 0 8 3 5 6 -4 4 -14 1 -23 -7 -14 -11 -15
-10 -12 5 2 12 -4 20 -15 21 -9 2 -15 -1 -11 -6 3 -5 0 -9 -5 -9 -10 0 -15 13
-13 31 1 3 -6 6 -13 6 -11 0 -12 -4 -3 -14 8 -11 7 -12 -6 -7 -9 3 -16 11 -16
17 0 6 -6 2 -14 -8 -13 -18 -14 -17 -28 9 -12 24 -16 26 -21 12 -5 -12 -3 -15
6 -10 7 4 7 1 -2 -7 -10 -11 -15 -11 -18 -1 -3 6 -9 12 -14 12 -6 0 -8 -4 -5
-8 2 -4 -4 -8 -15 -8 -10 0 -19 3 -19 6 0 4 -7 7 -15 7 -8 0 -15 -4 -15 -9 0
-4 -5 -8 -11 -8 -5 0 -8 4 -4 9 10 18 -13 21 -26 4 -12 -14 -12 -16 0 -8 10 5
12 4 7 -4 -10 -15 -26 -5 -27 17 0 14 -2 13 -9 -3 -6 -14 -9 -15 -10 -5 -1 10
-4 9 -10 -5 -8 -18 -9 -18 -9 -2 -1 10 -6 15 -11 12 -6 -4 -7 -11 -4 -17 4 -5
-4 -5 -16 2 -20 11 -22 10 -16 -5 6 -16 4 -16 -11 -4 -10 8 -14 9 -10 2 5 -7
-1 -16 -13 -23 -11 -6 -20 -7 -20 -3 0 4 -16 -8 -35 -27 -27 -27 -34 -29 -31
-14 3 17 -1 20 -25 18 -26 -2 -28 1 -25 26 2 21 -1 27 -10 23 -8 -3 -14 1 -14
11 0 9 -4 16 -10 16 -5 0 -10 5 -10 11 0 5 5 7 12 3 7 -4 8 -3 4 5 -4 6 -11 9
-15 7 -4 -3 -13 -1 -21 5 -12 7 -10 9 8 9 12 0 22 4 22 9 0 6 -9 8 -20 6 -11
-2 -23 1 -26 7 -4 7 -2 8 4 4 20 -12 13 9 -7 24 -11 7 -17 18 -15 22 3 5 12 1
21 -9 13 -17 13 -16 3 5 -6 12 -15 20 -21 17 -8 -6 -13 8 -10 28 0 4 -4 7 -9
7 -6 0 -10 6 -10 14 0 8 -7 17 -16 20 -8 3 -12 10 -9 16 3 5 0 10 -7 11 -7 0
-4 4 7 9 16 7 17 9 3 9 -10 1 -16 9 -15 21 1 12 7 18 14 16 7 -3 10 1 6 10 -3
8 1 14 8 14 9 1 8 4 -3 11 -10 5 -18 15 -18 22 0 7 4 6 10 -3 8 -13 10 -13 10
2 0 9 6 19 13 22 6 4 3 5 -9 2 -12 -2 -21 2 -21 9 0 8 7 11 15 7 11 -4 13 -2
7 8 -11 19 -14 70 -3 64 4 -3 8 0 8 5 0 6 -6 11 -12 12 -7 0 -4 4 7 9 17 7 17
9 3 9 -10 1 -18 6 -18 12 0 5 6 7 13 3 9 -6 9 -4 1 7 -6 8 -14 23 -18 33 -5
15 -4 17 7 8 11 -9 13 -7 12 10 -1 11 -10 27 -20 34 -17 13 -13 19 9 15 5 -1
4 5 -3 13 -7 9 -17 14 -20 11 -4 -2 -8 2 -8 10 0 8 4 12 8 9 4 -2 11 1 15 7 4
8 3 9 -4 5 -8 -4 -12 0 -12 11 0 15 -2 16 -10 3 -8 -13 -10 -12 -10 3 0 9 5
17 11 17 5 0 8 4 4 10 -3 5 -13 6 -23 3 -15 -6 -15 -5 -3 10 10 13 10 17 1 17
-9 0 -9 4 1 17 12 14 12 16 0 8 -11 -6 -13 -4 -8 8 3 9 1 19 -5 23 -6 4 -8 3
-4 -4 3 -6 2 -13 -3 -16 -5 -3 -8 8 -7 24 1 17 -2 36 -7 43 -6 8 -7 7 -3 -5 3
-10 2 -19 -2 -22 -7 -4 -12 17 -15 61 0 7 -4 10 -9 7 -8 -5 -18 12 -22 42 -2
10 -9 20 -17 22 -11 3 -11 1 1 -7 8 -6 10 -11 4 -11 -6 0 -18 8 -25 17 -10 11
-10 14 -1 9 6 -4 12 -2 12 3 0 6 -5 11 -11 11 -5 0 -7 5 -3 12 5 8 2 9 -10 5
-9 -4 -15 -3 -12 1 7 12 -29 63 -39 55 -4 -5 -2 2 4 14 10 20 9 22 -6 16 -12
-5 -15 -2 -10 9 6 18 -40 68 -64 68 -12 0 -12 2 1 10 13 8 12 10 -2 10 -10 0
-18 5 -18 11 0 5 -4 8 -9 4 -5 -3 -13 0 -17 6 -4 8 -3 9 4 5 7 -4 12 -2 12 3
0 6 -5 11 -11 11 -5 0 -7 6 -3 13 5 7 0 6 -11 -3 -16 -14 -17 -13 -11 8 6 18
4 21 -10 15 -13 -5 -16 -3 -11 10 7 19 -8 23 -17 5 -3 -7 -4 -4 -3 7 1 13 -3
19 -12 17 -12 -3 -12 -1 -1 13 7 9 9 15 4 14 -19 -3 -34 1 -34 12 0 5 6 7 13
3 8 -5 8 -2 -2 9 -7 9 -20 17 -28 17 -20 0 -43 25 -43 46 0 14 -2 15 -17 3 -9
-8 -14 -9 -10 -3 3 6 -3 17 -13 24 -15 11 -17 17 -8 27 8 10 7 12 -4 8 -8 -3
-28 1 -44 10 -16 8 -22 15 -13 15 8 0 19 -3 25 -7 5 -5 0 1 -11 13 -13 14 -22
17 -27 10 -5 -7 -8 -4 -8 6 0 12 -5 15 -17 11 -15 -6 -16 -4 -5 9 10 13 10 18
1 24 -8 4 -9 3 -5 -4 4 -7 2 -12 -3 -12 -6 0 -12 5 -12 10 -1 6 -2 16 -3 23
-1 6 -7 11 -14 10 -7 -2 -12 2 -12 9 0 6 -3 8 -7 5 -3 -4 -12 1 -20 11 -12 16
-13 16 -6 -2z m290 -262 c-3 -3 -12 -4 -19 -1 -8 3 -5 6 6 6 11 1 17 -2 13 -5z
m194 -220 c23 -25 23 -26 2 -13 -13 7 -25 19 -27 26 -8 19 -2 16 25 -13z m274
-534 c3 -5 1 -10 -4 -10 -6 0 -11 5 -11 10 0 6 2 10 4 10 3 0 8 -4 11 -10z
m-418 -185 c0 -8 -4 -12 -9 -9 -5 3 -6 10 -3 15 9 13 12 11 12 -6z m1993 -50
c0 -2 -9 -3 -19 -2 -11 0 -18 5 -15 9 4 6 34 0 34 -7z m-70 -404 c-5 -10 -6
-22 -2 -26 4 -5 1 -5 -6 -1 -8 5 -9 13 -2 25 5 10 6 22 2 26 -4 5 -1 5 6 1 8
-5 9 -13 2 -25z m-1263 -23 c2 -17 0 -19 -7 -8 -5 8 -6 18 -4 22 8 12 10 10
11 -14z m-479 -123 c-3 -3 -9 2 -12 12 -6 14 -5 15 5 6 7 -7 10 -15 7 -18z
m372 -15 c0 -5 -2 -10 -4 -10 -3 0 -8 5 -11 10 -3 6 -1 10 4 10 6 0 11 -4 11
-10z m40 -20 c0 -5 -5 -10 -11 -10 -5 0 -7 5 -4 10 3 6 8 10 11 10 2 0 4 -4 4
-10z m720 -70 c-11 -11 -23 -20 -27 -20 -3 0 2 9 12 20 10 11 22 20 27 20 4 0
-1 -9 -12 -20z m-93 -435 c0 -8 -4 -12 -9 -9 -5 3 -6 10 -3 15 9 13 12 11 12
-6z m356 -6 c-8 -8 -13 -7 -18 2 -5 8 -4 10 3 5 7 -4 12 -2 12 5 0 7 3 9 7 6
4 -4 2 -12 -4 -18z m-863 -269 c0 -5 -2 -10 -4 -10 -3 0 -8 5 -11 10 -3 6 -1
10 4 10 6 0 11 -4 11 -10z m415 -649 c-3 -5 -1 -12 5 -16 13 -8 3 -25 -13 -25
-8 0 -8 3 2 9 9 6 10 11 2 15 -10 7 -6 26 5 26 3 0 3 -4 -1 -9z m-505 -261 c0
-5 -5 -10 -11 -10 -5 0 -7 5 -4 10 3 6 8 10 11 10 2 0 4 -4 4 -10z"/>
<path d="M3305 3809 c-4 -6 -4 -13 -1 -16 3 -4 6 -1 6 6 0 7 5 9 12 5 7 -4 8
-3 4 4 -9 15 -13 15 -21 1z"/>
<path d="M2750 3676 c0 -2 8 -10 18 -17 15 -13 16 -12 3 4 -13 16 -21 21 -21
13z"/>
<path d="M1750 3486 c0 -2 8 -10 18 -17 15 -13 16 -12 3 4 -13 16 -21 21 -21
13z"/>
<path d="M5349 3488 c-1 -2 -3 -12 -4 -23 -2 -11 -6 -29 -11 -39 -5 -14 -4
-17 4 -12 15 9 16 -6 1 -21 -14 -14 -2 -36 13 -27 7 4 8 2 4 -5 -4 -6 -12 -8
-18 -5 -6 4 -9 1 -6 -7 3 -8 10 -14 16 -14 5 0 14 -3 18 -7 3 -4 -3 -6 -15 -3
-26 5 -27 -3 -3 -22 16 -14 16 -14 -2 -8 -20 6 -20 6 0 -16 10 -12 14 -19 8
-16 -14 8 -27 -20 -14 -28 11 -7 8 -54 -5 -74 -5 -10 -4 -12 4 -7 13 9 11 -50
-4 -73 -5 -9 -4 -12 2 -8 6 4 13 -4 16 -19 3 -20 1 -24 -11 -19 -12 4 -11 0 4
-16 10 -12 13 -19 7 -15 -13 7 -14 4 -17 -33 0 -11 -4 -22 -7 -26 -8 -7 1 -45
10 -45 4 0 7 -8 7 -19 0 -10 -7 -18 -14 -17 -16 1 -25 -31 -12 -39 5 -3 7 4 5
15 -2 11 0 18 5 15 11 -7 7 -29 -10 -51 -13 -16 -13 -17 0 -9 9 5 8 0 -4 -13
-11 -12 -16 -25 -13 -29 4 -3 7 -1 7 5 0 7 8 12 18 12 13 0 14 -2 3 -9 -7 -5
-11 -13 -7 -19 3 -6 1 -14 -5 -18 -8 -4 -9 -3 -5 4 4 7 2 10 -6 7 -8 -3 -14
-14 -14 -25 0 -14 4 -16 12 -9 9 8 11 5 7 -10 -3 -12 -10 -18 -16 -14 -6 4 -7
1 -2 -7 4 -7 2 -15 -4 -19 -9 -6 -9 -15 -2 -35 10 -25 10 -26 -12 -15 -22 12
-22 12 -4 -9 14 -15 15 -22 6 -28 -8 -5 -10 -3 -4 7 8 12 6 12 -8 0 -18 -14
-24 -26 -8 -17 5 3 14 0 20 -8 9 -10 7 -17 -6 -27 -11 -9 -14 -10 -9 -1 4 6 2
12 -3 12 -15 0 -14 -13 2 -29 7 -9 7 -11 1 -8 -7 4 -15 0 -18 -9 -3 -8 -2 -13
3 -10 5 4 7 -3 4 -14 -3 -11 -9 -20 -14 -20 -5 0 -7 -11 -5 -26 3 -16 0 -27
-10 -31 -13 -5 -13 -7 -2 -14 10 -7 9 -9 -5 -9 -10 0 -15 -5 -12 -10 4 -6 12
-7 18 -3 7 3 4 -3 -6 -15 -11 -11 -16 -25 -12 -31 3 -6 0 -8 -8 -5 -10 4 -15
-1 -14 -13 1 -11 -4 -17 -13 -15 -8 2 -12 0 -8 -3 4 -4 3 -17 -3 -28 -6 -10
-7 -17 -2 -14 5 4 10 -1 10 -9 0 -8 -6 -13 -13 -10 -16 6 -27 -21 -12 -30 7
-5 8 -2 3 6 -5 9 -4 11 4 6 6 -4 9 -12 5 -17 -3 -5 -10 -6 -16 -3 -7 5 -9 -2
-6 -19 4 -22 3 -25 -12 -17 -15 8 -17 6 -12 -12 3 -14 1 -19 -6 -14 -7 4 -12
3 -12 -3 0 -5 6 -12 13 -14 7 -3 5 -6 -5 -6 -10 -1 -18 -6 -18 -12 0 -5 4 -8
9 -4 5 3 12 1 15 -4 4 -5 -4 -8 -17 -7 -14 2 -24 -2 -24 -10 0 -7 3 -11 7 -9
3 2 6 -5 6 -15 0 -11 -5 -16 -15 -12 -11 4 -13 0 -8 -17 5 -19 3 -20 -9 -10
-8 7 -14 8 -13 3 1 -5 1 -19 0 -31 -1 -17 -5 -21 -18 -16 -11 5 -14 3 -8 -6 4
-8 3 -16 -3 -20 -7 -4 -13 -16 -14 -26 -4 -25 -14 -33 -25 -21 -5 5 -2 6 6 1
10 -5 12 -4 7 4 -11 18 -25 3 -18 -21 4 -16 2 -19 -9 -13 -12 8 -12 6 -1 -8
12 -14 11 -16 -8 -12 -17 3 -19 1 -11 -9 8 -9 5 -18 -13 -34 -13 -11 -28 -17
-31 -14 -4 4 -2 -4 5 -18 12 -23 12 -24 -3 -12 -14 12 -16 11 -12 -8 4 -19 2
-20 -13 -9 -9 7 -14 9 -10 5 4 -5 0 -15 -10 -23 -16 -14 -16 -14 1 -9 11 3 16
2 12 -4 -3 -6 -13 -10 -21 -10 -9 0 -12 -5 -8 -12 5 -8 2 -9 -11 -4 -15 5 -16
4 -5 -9 11 -13 10 -14 -4 -9 -11 4 -16 2 -14 -7 2 -8 -4 -13 -14 -13 -14 1
-15 -2 -8 -17 9 -15 7 -17 -11 -14 -17 3 -18 1 -10 -9 9 -11 8 -14 -6 -12 -10
0 -17 -5 -15 -13 2 -9 -3 -11 -14 -7 -13 5 -14 4 -6 -7 12 -14 6 -27 -12 -27
-6 0 -4 5 4 11 13 9 13 10 0 6 -8 -2 -14 -12 -14 -21 1 -9 -4 -17 -12 -17 -28
-3 -32 -4 -41 -12 -4 -5 -8 -16 -8 -25 0 -10 -7 -16 -18 -16 -15 2 -16 -1 -5
-14 11 -13 10 -14 -9 -4 -19 11 -21 9 -19 -13 2 -13 -1 -22 -5 -19 -5 3 -9 0
-9 -5 0 -6 -5 -11 -11 -11 -5 0 -7 5 -3 12 4 7 3 8 -4 4 -7 -4 -12 -14 -12
-22 0 -8 -4 -12 -10 -9 -5 3 -10 1 -10 -4 0 -6 -6 -11 -14 -11 -8 0 -16 -7
-20 -15 -3 -8 -9 -14 -13 -13 -4 2 -19 -5 -33 -15 -13 -9 -20 -17 -16 -17 5 0
19 8 30 17 20 17 20 17 7 0 -8 -9 -30 -25 -50 -34 -20 -10 -42 -23 -49 -30 -8
-7 -18 -11 -23 -8 -5 4 -6 0 -3 -8 3 -8 0 -18 -7 -23 -7 -4 -10 -3 -5 4 3 6 2
14 -4 17 -6 4 -10 3 -9 -2 4 -22 -3 -33 -18 -32 -11 0 -13 3 -5 6 6 2 12 9 12
15 0 7 -5 6 -14 -2 -8 -6 -12 -18 -10 -25 4 -10 -1 -12 -18 -8 -21 6 -22 5 -8
-12 8 -10 10 -16 3 -12 -16 10 -41 -2 -46 -21 -4 -15 -5 -15 -6 1 0 9 -6 17
-12 17 -5 0 -8 -4 -4 -9 9 -16 -15 -24 -31 -10 -12 10 -13 9 -9 -3 3 -8 -2
-21 -12 -29 -16 -13 -17 -12 -4 4 12 15 12 17 -2 12 -8 -4 -17 -15 -20 -26 -3
-10 -11 -19 -19 -18 -10 0 -10 2 0 6 6 2 12 9 12 14 0 6 -8 5 -20 -1 -11 -6
-19 -14 -19 -18 3 -19 -2 -23 -16 -12 -10 8 -15 9 -15 2 0 -7 -7 -9 -17 -5
-13 5 -15 2 -10 -12 7 -16 5 -16 -10 -4 -14 12 -16 12 -8 0 6 -11 3 -13 -14
-8 -17 4 -20 2 -12 -7 8 -10 3 -12 -24 -11 -29 1 -35 -3 -35 -19 0 -20 0 -20
-16 0 -8 10 -13 14 -10 8 3 -7 -1 -17 -9 -24 -8 -7 -15 -9 -15 -5 0 4 -6 3
-12 -3 -7 -5 -23 -8 -36 -6 -13 2 -21 0 -17 -5 3 -6 -6 -8 -21 -5 -19 3 -24 1
-18 -8 4 -7 -3 -4 -16 7 l-23 20 11 -21 c10 -19 9 -21 -16 -18 -14 1 -30 -3
-34 -9 -6 -9 -8 -9 -8 1 0 6 -5 12 -11 12 -6 0 -9 -7 -6 -14 4 -10 1 -13 -8
-9 -8 3 -12 9 -9 14 3 5 -2 6 -10 3 -9 -3 -13 -11 -9 -18 4 -6 -1 -5 -10 3
-15 12 -17 11 -17 -3 0 -9 -5 -16 -11 -16 -6 0 -8 9 -4 23 5 20 5 20 -9 -3 -9
-14 -15 -19 -16 -11 0 12 -3 12 -12 3 -14 -14 -32 -16 -24 -3 4 5 -5 4 -18 -2
-13 -7 -22 -16 -19 -21 4 -5 1 -6 -6 -2 -6 4 -9 11 -7 15 3 4 -1 8 -9 8 -8 0
-15 -7 -16 -16 0 -10 -2 -12 -6 -3 -2 6 -9 12 -14 12 -6 0 -8 -4 -5 -8 3 -5
-1 -9 -9 -9 -8 0 -12 4 -9 8 2 4 0 11 -6 14 -6 4 -10 3 -9 -2 3 -20 -2 -37 -9
-28 -4 6 -16 17 -27 25 -16 11 -17 11 -7 0 18 -21 15 -35 -5 -19 -15 13 -15
12 -6 -6 9 -15 8 -22 -4 -31 -13 -9 -13 -13 -3 -19 9 -5 11 -4 6 3 -10 17 -1
15 14 -4 8 -8 9 -14 4 -13 -23 4 -26 -2 -8 -17 13 -11 14 -14 3 -11 -9 3 -16
-1 -16 -9 0 -7 4 -11 8 -9 3 3 12 -2 18 -9 10 -12 8 -14 -11 -9 -14 3 -18 1
-12 -4 6 -4 10 -16 8 -26 -1 -9 2 -15 7 -11 5 3 6 11 3 17 -4 7 -4 9 0 5 12
-11 13 -107 1 -101 -5 2 -3 -1 5 -9 19 -17 24 -56 9 -75 -7 -7 -9 -16 -5 -20
3 -3 6 -1 6 5 0 7 4 12 10 12 5 0 7 -7 4 -15 -4 -8 -1 -22 6 -30 7 -8 9 -15 5
-15 -4 0 -1 -8 6 -17 8 -9 9 -14 3 -10 -7 4 -15 0 -18 -9 -3 -8 -2 -12 4 -9
10 6 14 -7 11 -34 -2 -8 3 -10 11 -6 7 3 5 0 -5 -8 -15 -13 -16 -15 -2 -21 17
-6 21 -26 4 -26 -5 0 -7 5 -4 10 10 16 -1 11 -16 -7 -8 -9 -9 -14 -3 -10 7 4
18 -1 25 -10 8 -9 9 -14 4 -11 -6 4 -11 -2 -11 -12 0 -14 3 -16 13 -8 10 8 12
7 9 -3 -3 -8 -7 -26 -10 -41 -4 -21 -1 -26 12 -21 11 5 14 2 10 -8 -7 -19 42
-25 54 -7 6 10 8 10 8 1 0 -7 5 -13 11 -13 6 0 9 7 5 15 -4 13 -2 13 14 5 26
-14 30 -13 30 8 1 13 4 11 16 -8 8 -14 13 -17 10 -8 -3 10 -1 20 4 23 6 4 10
1 10 -5 0 -7 8 -9 23 -4 12 4 27 7 34 7 6 0 9 5 7 12 -3 6 6 11 18 12 17 2 19
0 9 -6 -10 -7 -6 -9 12 -8 18 2 22 5 16 13 -7 9 0 12 27 10 21 -1 38 4 41 11
3 6 11 9 19 6 10 -4 13 0 8 13 -3 11 -2 15 3 9 4 -5 18 -11 30 -11 16 -1 20 3
16 15 -4 9 -3 13 2 9 4 -4 15 -2 23 5 13 9 14 9 8 0 -4 -7 -2 -13 3 -13 6 0
11 8 12 18 0 10 3 12 6 5 2 -7 9 -13 15 -13 6 0 7 7 4 16 -6 15 -4 15 11 3 15
-12 16 -12 9 5 -7 19 -6 19 13 2 20 -18 20 -18 16 3 -2 14 1 21 11 21 8 0 12
-4 9 -10 -3 -5 -1 -10 4 -10 6 0 11 7 11 16 0 14 3 14 15 4 13 -11 14 -10 9 3
-4 12 -1 14 14 10 11 -2 23 0 26 6 5 7 1 8 -11 4 -19 -7 -18 -5 9 15 12 10 18
10 24 1 5 -8 3 -9 -6 -4 -9 6 -11 4 -5 -4 8 -13 29 0 31 19 1 6 2 13 3 17 0 4
8 -2 17 -13 8 -10 13 -13 9 -6 -5 11 6 16 27 13 4 0 5 6 1 15 -5 14 -3 15 15
5 17 -9 24 -6 50 26 21 27 31 33 37 23 6 -9 4 -11 -5 -5 -9 5 -11 4 -6 -3 9
-15 11 -15 27 5 8 9 9 14 3 10 -6 -3 -11 0 -11 7 0 8 9 11 24 8 14 -3 23 0 23
8 0 7 7 10 14 7 11 -4 13 -1 9 10 -5 12 -3 14 7 8 9 -6 12 -4 8 7 -4 8 0 15 8
15 7 0 10 -5 7 -11 -4 -6 0 -5 9 1 8 7 18 10 22 6 4 -4 4 0 0 10 -5 13 -1 17
16 17 17 0 21 4 16 17 -4 10 -4 14 0 10 4 -4 14 -1 22 6 13 10 14 9 7 -2 -5
-10 -4 -12 3 -7 7 4 12 14 12 22 0 8 5 14 11 14 5 0 7 -5 3 -12 -5 -7 -3 -8 5
-4 7 5 10 13 8 20 -2 6 10 22 27 36 16 14 27 19 23 13 -5 -7 -5 -13 -1 -13 9
0 44 41 44 51 0 4 10 5 23 2 18 -4 19 -3 7 6 -14 10 -7 16 14 12 4 -1 14 4 22
10 12 9 12 15 2 27 -9 11 -9 14 -1 9 7 -4 17 0 23 10 9 13 10 14 7 2 -3 -9 0
-16 7 -16 7 0 12 10 12 21 -1 14 5 21 16 20 10 -1 16 2 13 6 -2 4 2 15 9 26
12 16 16 17 32 4 13 -10 15 -10 7 -1 -12 14 -7 41 9 41 5 0 6 -4 3 -10 -10
-16 1 -11 16 7 8 10 9 14 2 10 -6 -4 -15 -2 -19 4 -5 8 1 10 18 7 15 -3 25 0
25 8 0 7 -7 10 -16 7 -12 -3 -12 -2 2 7 9 6 22 8 29 4 6 -4 8 -3 4 4 -3 5 0
13 6 15 10 4 10 6 1 6 -7 1 -13 5 -13 11 0 5 6 7 14 4 8 -3 17 0 22 7 5 8 3
10 -6 4 -9 -6 -11 -4 -6 4 5 7 14 10 21 7 18 -7 27 5 15 19 -7 9 -5 17 7 26
17 13 17 13 3 -6 -14 -18 -13 -19 1 -8 9 7 19 9 24 5 4 -4 2 3 -4 16 -6 12 -8
23 -4 23 4 1 15 2 23 3 9 0 14 10 14 24 -1 16 8 29 28 42 20 12 25 20 16 23
-11 4 -11 6 0 6 21 1 38 24 36 48 -1 15 3 20 14 15 10 -3 13 -1 8 6 -3 6 0 14
8 19 8 4 15 13 15 18 1 6 5 10 10 10 5 0 13 3 17 8 4 4 2 7 -4 7 -7 0 -12 5
-12 11 0 6 7 8 16 5 8 -3 12 -2 9 3 -3 5 -1 13 5 16 6 4 8 15 5 26 -4 13 -2
19 6 17 6 -2 16 12 21 30 5 17 14 32 20 32 9 0 9 -3 0 -12 -7 -7 -12 -17 -12
-22 1 -13 24 24 25 39 1 6 6 9 11 8 6 -1 10 16 10 38 -1 24 5 45 13 52 9 7 12
8 8 1 -3 -6 -1 -11 6 -11 7 0 13 12 14 25 1 19 -1 22 -9 11 -8 -12 -9 -12 -5
1 2 8 12 14 21 14 13 -2 14 1 5 12 -8 10 -8 14 0 14 6 0 11 5 11 11 0 5 -5 7
-12 3 -7 -4 -8 -3 -4 4 4 7 14 12 22 12 8 0 14 5 14 11 0 5 -4 8 -8 5 -5 -3
-9 1 -9 9 0 8 4 12 9 9 4 -3 8 5 8 17 0 18 2 19 15 9 20 -16 19 -6 -1 14 -14
15 -14 16 0 16 9 0 17 5 17 10 1 6 3 15 4 20 1 6 3 22 4 36 1 17 5 23 14 18 7
-5 6 0 -3 11 -14 17 -13 18 2 12 13 -4 16 -1 13 14 -2 10 2 19 8 19 7 0 6 4
-3 10 -10 6 -11 10 -2 10 6 0 12 12 12 26 0 17 4 23 13 18 7 -5 6 0 -3 11 -12
15 -12 17 -1 10 11 -6 13 -3 9 13 -4 12 -2 22 3 22 5 0 8 6 6 13 -1 6 4 11 11
9 9 -1 8 7 -4 30 -17 32 -17 33 2 18 10 -8 16 -10 12 -6 -4 5 -2 16 5 24 10
13 9 14 -1 8 -13 -8 -12 8 4 63 5 17 4 22 -4 17 -18 -11 -14 0 5 15 15 12 16
12 8 -1 -4 -8 -4 -12 0 -7 5 4 10 18 12 30 2 18 1 19 -7 7 -8 -12 -9 -9 -6 10
3 14 5 31 5 38 1 6 9 12 19 13 14 0 14 2 -3 9 -11 5 -14 9 -7 9 7 1 10 6 7 12
-4 5 1 19 10 29 16 18 16 20 2 26 -15 5 -14 9 6 25 14 12 17 18 7 17 -9 -2
-14 3 -12 14 1 9 -3 20 -9 24 -8 5 -4 13 12 26 13 11 19 17 13 14 -7 -3 -14 5
-16 19 -3 15 -1 22 5 18 6 -4 7 4 3 21 -4 15 -3 25 2 22 8 -5 7 30 -2 72 -3
13 -1 20 5 17 5 -4 9 -1 9 4 0 6 -6 11 -12 12 -7 0 -4 4 7 9 16 7 17 9 3 9
-12 1 -16 8 -13 29 2 15 4 27 5 27 1 0 3 10 4 22 2 18 0 20 -11 11 -11 -9 -12
-7 -7 7 6 14 4 16 -7 10 -11 -7 -12 -6 -2 7 7 8 9 19 5 23 -4 5 0 4 8 0 13 -8
13 -7 1 8 -12 15 -11 17 5 17 16 0 17 2 4 10 -13 9 -13 11 0 20 8 5 10 10 5
10 -6 0 -15 -4 -20 -9 -6 -6 -10 -1 -10 14 0 18 3 21 13 13 9 -8 11 -7 6 6 -3
9 -11 16 -16 16 -6 0 -6 6 1 14 10 11 7 17 -11 30 -12 9 -17 16 -11 16 7 0 10
9 8 20 -2 11 0 18 4 16 4 -3 8 1 8 8 0 8 -5 12 -12 10 -6 -3 -11 4 -11 15 0
11 3 18 6 16 4 -2 7 2 7 10 0 8 -4 12 -9 9 -13 -8 -9 10 5 25 10 10 8 12 -7 9
-12 -2 -20 3 -21 15 -2 9 1 15 6 11 5 -3 6 -10 3 -16 -4 -7 -2 -8 4 -4 13 8 5
36 -12 36 -7 0 -6 3 2 9 11 7 10 9 -3 14 -13 6 -14 11 -4 29 l12 23 -23 -20
-23 -20 19 30 c10 16 13 26 7 22 -7 -5 -13 -4 -13 0 0 5 6 15 13 22 10 11 9
13 -5 8 -20 -7 -31 26 -14 43 8 9 5 16 -11 29 -15 13 -19 21 -11 29 7 7 4 12
-11 17 -12 3 -21 11 -21 16 0 6 4 8 8 5 5 -3 9 1 9 9 0 8 -5 11 -10 8 -6 -4
-8 0 -4 10 5 13 1 25 -4 15z m46 -119 c11 -16 1 -19 -13 -3 -7 8 -8 14 -3 14
5 0 13 -5 16 -11z m-28 -125 c-3 -3 -12 -4 -19 -1 -8 3 -5 6 6 6 11 1 17 -2
13 -5z m-6 -57 c-10 -9 -11 -8 -5 6 3 10 9 15 12 12 3 -3 0 -11 -7 -18z m-3
-234 c-9 -10 -13 -25 -11 -33 4 -13 3 -13 -5 -1 -11 15 5 51 22 51 5 0 2 -8
-6 -17z m132 -579 c0 -8 -19 -13 -24 -6 -3 5 1 9 9 9 8 0 15 -2 15 -3z m-276
-868 c-3 -9 -10 -16 -15 -16 -5 0 -4 9 3 20 14 22 21 20 12 -4z m-560 -34 c3
-5 -1 -9 -9 -9 -8 0 -12 4 -9 9 3 4 7 8 9 8 2 0 6 -4 9 -8z m-455 -1018 c-6
-7 -16 -11 -23 -7 -7 5 -5 9 7 11 9 2 14 8 11 14 -4 7 -2 8 5 4 9 -6 9 -11 0
-22z m-789 -214 c0 -5 -5 -10 -11 -10 -5 0 -7 5 -4 10 3 6 8 10 11 10 2 0 4
-4 4 -10z"/>
<path d="M3193 3431 c0 -11 5 -18 9 -15 4 3 5 11 1 19 -7 21 -12 19 -10 -4z"/>
<path d="M3600 3428 c-12 -22 -12 -22 6 -6 10 10 15 20 12 24 -4 3 -12 -5 -18
-18z"/>
<path d="M1775 3391 c-3 -5 -2 -12 3 -15 5 -3 9 1 9 9 0 17 -3 19 -12 6z"/>
<path d="M2799 3228 c-5 -16 -4 -46 2 -42 4 2 7 13 6 24 -1 17 -5 26 -8 18z"/>
<path d="M1173 3095 c0 -8 4 -12 9 -9 5 3 6 10 3 15 -9 13 -12 11 -12 -6z"/>
<path d="M1840 3080 c-13 -8 -12 -10 3 -10 9 0 17 5 17 10 0 12 -1 12 -20 0z"/>
<path d="M3357 3083 c-4 -3 -7 -11 -7 -17 0 -6 5 -5 12 2 6 6 9 14 7 17 -3 3
-9 2 -12 -2z"/>
<path d="M3840 3060 c-8 -5 -12 -11 -9 -14 2 -3 11 -1 19 4 8 5 12 11 9 14 -2
3 -11 1 -19 -4z"/>
<path d="M1462 3050 c1 -19 -3 -30 -13 -30 -5 0 -7 5 -3 12 4 7 3 8 -5 4 -9
-6 -9 -11 1 -24 11 -14 10 -15 -7 -8 -11 4 -16 4 -13 0 4 -4 3 -16 -3 -27 -8
-14 -8 -18 0 -13 6 4 11 0 11 -9 0 -10 -5 -13 -12 -9 -7 4 -8 3 -4 -5 4 -6 12
-8 18 -5 7 5 9 1 5 -9 -4 -10 -2 -16 6 -14 7 1 11 -4 9 -11 -2 -9 2 -11 10 -6
19 12 39 14 32 3 -3 -5 -10 -7 -15 -4 -5 4 -9 2 -9 -3 0 -6 7 -13 16 -16 8 -3
13 -2 10 3 -9 14 29 20 50 8 17 -10 18 -9 5 7 -8 9 -10 16 -5 15 22 -4 34 2
34 17 0 8 4 12 10 9 6 -3 7 1 4 10 -4 8 -1 22 5 29 8 9 8 16 2 20 -6 4 -8 14
-5 24 5 14 4 14 -4 3 -6 -8 -9 -23 -6 -34 2 -11 0 -16 -4 -13 -4 4 -7 17 -7
29 -1 13 -6 21 -14 19 -8 -2 -11 5 -7 20 3 13 3 17 0 10 -3 -6 -11 -9 -16 -6
-13 8 -77 11 -76 4z"/>
<path d="M3193 3045 c0 -8 4 -12 9 -9 5 3 6 10 3 15 -9 13 -12 11 -12 -6z"/>
<path d="M2796 3033 c-6 -14 -5 -15 5 -6 7 7 10 15 7 18 -3 3 -9 -2 -12 -12z"/>
<path d="M4814 3015 c5 -13 2 -14 -15 -4 -17 9 -20 8 -14 -2 6 -9 3 -10 -10
-5 -14 5 -16 4 -6 -7 9 -12 7 -14 -11 -13 -17 1 -22 -4 -20 -18 2 -12 -1 -16
-9 -11 -9 6 -9 3 -1 -11 8 -14 6 -21 -6 -32 -10 -7 -12 -11 -5 -8 6 4 14 2 18
-4 3 -5 -1 -10 -9 -10 -13 0 -12 -6 5 -34 13 -23 26 -33 38 -31 10 2 24 -5 31
-15 13 -18 15 -18 28 -2 7 9 10 11 6 3 -4 -9 -3 -12 4 -7 5 3 13 0 16 -6 3 -7
3 -2 0 12 -4 14 -3 22 1 18 5 -4 15 -2 23 5 11 8 14 8 9 0 -4 -6 -3 -15 3 -18
6 -4 10 -3 9 2 -4 23 2 32 19 26 16 -7 16 -6 0 11 -23 22 -23 26 2 21 21 -4
36 10 21 20 -6 3 -8 12 -4 20 3 8 0 15 -7 15 -6 0 -8 -5 -4 -12 4 -7 3 -8 -4
-4 -9 5 -9 12 0 26 7 10 16 16 22 13 5 -3 6 -1 2 6 -6 9 -11 9 -21 1 -9 -8
-15 -6 -20 7 -5 10 -7 23 -6 29 1 7 -12 14 -28 16 -19 3 -28 0 -25 -6 3 -6 -1
-3 -9 7 -18 21 -31 22 -23 2z m76 -19 c0 -3 -4 -8 -10 -11 -5 -3 -10 -1 -10 4
0 6 5 11 10 11 6 0 10 -2 10 -4z m45 -106 c3 -6 -1 -7 -9 -4 -18 7 -21 14 -7
14 6 0 13 -4 16 -10z m-175 -54 c0 -12 -5 -7 -19 24 -11 24 -11 24 3 6 9 -11
16 -24 16 -30z"/>
<path d="M1863 3013 c4 -3 1 -13 -6 -22 -11 -14 -10 -14 5 -2 16 12 16 31 1
31 -4 0 -3 -3 0 -7z"/>
<path d="M5470 3006 c0 -2 7 -7 16 -10 8 -3 12 -2 9 4 -6 10 -25 14 -25 6z"/>
<path d="M3335 2909 c-4 -6 -5 -12 -2 -15 2 -3 7 2 10 11 7 17 1 20 -8 4z"/>
<path d="M415 2751 c-3 -5 -2 -12 3 -15 5 -3 9 1 9 9 0 17 -3 19 -12 6z"/>
<path d="M4581 2552 c4 -26 -2 -42 -13 -36 -9 5 -8 2 1 -9 12 -15 12 -17 -2
-12 -8 4 -18 1 -23 -6 -4 -7 -3 -10 3 -6 5 3 10 0 10 -8 0 -7 -8 -12 -19 -10
-10 2 -16 0 -13 -4 5 -9 -15 -30 -27 -28 -3 1 -10 -2 -15 -7 -4 -5 -3 -6 4 -2
6 3 14 2 18 -4 3 -5 -3 -10 -15 -10 -12 0 -18 -4 -15 -10 3 -5 1 -10 -5 -10
-6 0 -9 -4 -6 -9 4 -5 -5 -8 -19 -6 -16 1 -25 -3 -25 -12 0 -8 5 -11 13 -7 9
5 9 4 0 -6 -6 -7 -9 -19 -6 -27 5 -12 7 -12 14 -1 7 10 9 11 9 0 0 -8 5 -10
13 -6 9 6 9 4 -1 -8 -11 -14 -10 -17 7 -23 12 -3 21 -11 21 -16 0 -6 -4 -7
-10 -4 -15 10 -12 -5 6 -22 13 -13 13 -17 2 -24 -10 -7 -9 -9 5 -9 10 0 15 -4
12 -10 -11 -17 17 -11 32 8 13 15 13 15 4 -5 -8 -16 -8 -24 1 -29 6 -4 8 -3 4
4 -5 9 8 24 24 28 22 4 39 18 33 28 -4 7 -1 7 9 -1 8 -7 18 -10 21 -6 4 3 7 1
7 -5 0 -7 5 -12 11 -12 5 0 7 5 3 12 -4 7 -3 8 5 4 6 -4 9 -12 6 -17 -4 -5 -1
-9 6 -9 7 0 21 -8 32 -17 11 -10 17 -12 13 -5 -6 10 4 16 25 14 3 -1 5 11 4
26 -1 17 -7 26 -15 24 -10 -2 -11 0 -2 11 7 8 8 18 4 22 -4 5 -1 5 6 1 7 -4 9
-12 6 -18 -4 -6 -2 -8 3 -5 6 4 8 19 5 33 -4 23 -2 26 12 21 13 -5 19 -1 23
14 4 13 11 18 21 14 12 -4 12 -3 3 9 -9 11 -9 15 1 19 7 3 3 6 -10 6 -15 1
-21 -3 -16 -11 4 -6 3 -8 -4 -5 -5 4 -9 18 -8 31 3 26 -19 30 -35 5 -8 -12
-10 -12 -8 1 3 29 -1 40 -16 40 -8 0 -15 4 -15 10 0 5 8 6 17 3 15 -6 16 -5 3
9 -11 11 -19 13 -28 6 -7 -6 -15 -8 -19 -4 -3 3 -1 6 5 6 25 0 11 32 -20 44
-22 10 -27 15 -15 17 11 3 3 10 -23 21 -22 9 -39 13 -39 10z m24 -21 c3 -5 2
-12 -3 -15 -5 -3 -9 1 -9 9 0 17 3 19 12 6z m75 -53 c0 -7 -5 -6 -13 1 -8 6
-18 7 -22 3 -5 -4 -5 -2 -1 5 8 14 36 6 36 -9z m55 -257 c3 -5 2 -12 -3 -15
-5 -3 -9 1 -9 9 0 17 3 19 12 6z"/>
<path d="M1209 2508 c-5 -18 -6 -38 -1 -34 7 8 12 36 6 36 -2 0 -4 -1 -5 -2z"/>
<path d="M5488 2473 c7 -3 16 -2 19 1 4 3 -2 6 -13 5 -11 0 -14 -3 -6 -6z"/>
<path d="M2515 2440 c-3 -5 -1 -10 4 -10 6 0 11 5 11 10 0 6 -2 10 -4 10 -3 0
-8 -4 -11 -10z"/>
<path d="M5189 2323 c-13 -16 -12 -17 4 -4 16 13 21 21 13 21 -2 0 -10 -8 -17
-17z"/>
<path d="M3715 2310 c-3 -5 -2 -10 4 -10 5 0 13 5 16 10 3 6 2 10 -4 10 -5 0
-13 -4 -16 -10z"/>
<path d="M5466 2273 c-6 -14 -5 -15 5 -6 7 7 10 15 7 18 -3 3 -9 -2 -12 -12z"/>
<path d="M2775 2200 c-3 -5 -1 -10 4 -10 6 0 11 5 11 10 0 6 -2 10 -4 10 -3 0
-8 -4 -11 -10z"/>
<path d="M2120 2161 c0 -14 38 -34 53 -27 7 2 5 5 -5 5 -9 1 -24 8 -32 17 -9
8 -16 11 -16 5z"/>
<path d="M2538 2093 c7 -3 16 -2 19 1 4 3 -2 6 -13 5 -11 0 -14 -3 -6 -6z"/>
<path d="M533 1947 c0 -8 6 -14 14 -14 9 0 10 4 2 14 -6 7 -12 13 -14 13 -1 0
-2 -6 -2 -13z"/>
<path d="M3945 1920 c-3 -6 1 -7 9 -4 18 7 21 14 7 14 -6 0 -13 -4 -16 -10z"/>
<path d="M571 1844 c0 -11 3 -14 6 -6 3 7 2 16 -1 19 -3 4 -6 -2 -5 -13z"/>
<path d="M2457 1844 c-8 -9 14 -54 25 -48 4 3 1 12 -7 20 -8 9 -13 20 -10 25
7 10 2 12 -8 3z"/>
<path d="M1945 1721 c-3 -5 -2 -12 3 -15 5 -3 9 1 9 9 0 17 -3 19 -12 6z"/>
<path d="M3304 1702 c3 -5 0 -13 -6 -15 -9 -4 -10 -6 -1 -6 17 -1 25 16 12 25
-7 4 -9 3 -5 -4z"/>
<path d="M2786 1675 c-9 -26 -7 -32 5 -12 6 10 9 21 6 23 -2 3 -7 -2 -11 -11z"/>
<path d="M3190 1560 c0 -5 5 -10 10 -10 6 0 10 5 10 10 0 6 -4 10 -10 10 -5 0
-10 -4 -10 -10z"/>
<path d="M830 1306 c0 -2 7 -7 16 -10 8 -3 12 -2 9 4 -6 10 -25 14 -25 6z"/>
<path d="M3425 1299 c-3 -4 2 -6 10 -5 21 3 28 13 10 13 -9 0 -18 -4 -20 -8z"/>
<path d="M2037 1253 c-10 -9 -9 -23 1 -23 5 0 9 7 9 15 0 17 -1 18 -10 8z"/>
<path d="M3185 1230 c-3 -6 1 -7 9 -4 18 7 21 14 7 14 -6 0 -13 -4 -16 -10z"/>
<path d="M3194 1188 c1 -7 5 -19 9 -25 5 -7 6 -17 2 -22 -3 -5 -1 -12 4 -15
17 -11 23 15 8 32 -9 9 -16 21 -15 25 0 5 -3 11 -5 14 -3 3 -5 -1 -3 -9z"/>
<path d="M4985 1150 c-3 -5 -1 -10 4 -10 6 0 11 5 11 10 0 6 -2 10 -4 10 -3 0
-8 -4 -11 -10z"/>
<path d="M2315 1070 c3 -5 8 -10 11 -10 2 0 4 5 4 10 0 6 -5 10 -11 10 -5 0
-7 -4 -4 -10z"/>
<path d="M2470 1010 c0 -5 5 -10 10 -10 6 0 10 5 10 10 0 6 -4 10 -10 10 -5 0
-10 -4 -10 -10z"/>
<path d="M2535 980 c3 -5 8 -10 11 -10 2 0 4 5 4 10 0 6 -5 10 -11 10 -5 0 -7
-4 -4 -10z"/>
<path d="M3825 981 c-3 -6 -14 -8 -25 -6 -12 2 -18 0 -15 -5 4 -7 26 -7 45 0
3 1 8 2 13 1 4 0 7 4 7 9 0 13 -17 13 -25 1z"/>
<path d="M3246 854 c-5 -14 -4 -15 9 -4 17 14 19 20 6 20 -5 0 -12 -7 -15 -16z"/>
<path d="M2680 801 c0 -6 4 -13 10 -16 6 -3 7 1 4 9 -7 18 -14 21 -14 7z"/>
<path d="M4522 678 c-7 -7 -12 -16 -12 -21 0 -5 7 -1 16 8 9 9 14 18 12 20 -2
3 -10 -1 -16 -7z"/>
<path d="M3325 560 c-3 -5 -1 -10 4 -10 6 0 11 5 11 10 0 6 -2 10 -4 10 -3 0
-8 -4 -11 -10z"/>
<path d="M1635 520 c3 -5 8 -10 11 -10 2 0 4 5 4 10 0 6 -5 10 -11 10 -5 0 -7
-4 -4 -10z"/>
<path d="M3350 399 c0 -5 5 -7 10 -4 6 3 10 8 10 11 0 2 -4 4 -10 4 -5 0 -10
-5 -10 -11z"/>
<path d="M3260 346 c0 -2 7 -9 15 -16 13 -11 14 -10 9 4 -5 14 -24 23 -24 12z"/>
<path d="M2470 190 c0 -6 7 -10 15 -10 8 0 15 2 15 4 0 2 -7 6 -15 10 -8 3
-15 1 -15 -4z"/>
<path d="M3116 68 c3 -5 10 -6 15 -3 13 9 11 12 -6 12 -8 0 -12 -4 -9 -9z"/>
</g>
</svg>
